<?xml version="1.0" encoding="UTF-8" standalone="no"?>
<!-- Created with Inkscape (http://www.inkscape.org/) -->

<svg
   width="168.5"
   height="95.999992"
   viewBox="0 0 44.582293 25.399997"
   version="1.1"
   id="svg5"
   inkscape:version="1.1.1 (3bf5ae0d25, 2021-09-20)"
   sodipodi:docname="dm2_diagram_1.svg"
   xmlns:inkscape="http://www.inkscape.org/namespaces/inkscape"
   xmlns:sodipodi="http://sodipodi.sourceforge.net/DTD/sodipodi-0.dtd"
   xmlns="http://www.w3.org/2000/svg"
   xmlns:svg="http://www.w3.org/2000/svg">
  <style
     id="style1410">
.dm2-button {
  fill:#353535;
  fill-opacity:1;
  stroke:none;
  stroke-dasharray:none;
  stroke-linejoin:round;
  stroke-miterlimit:4;
  stroke-opacity:1;
}
</style>
  <sodipodi:namedview
     id="namedview7"
     pagecolor="#505050"
     bordercolor="#ffffff"
     borderopacity="1"
     inkscape:pageshadow="0"
     inkscape:pageopacity="0"
     inkscape:pagecheckerboard="1"
     inkscape:document-units="px"
     showgrid="false"
     units="px"
     fit-margin-top="0"
     fit-margin-left="0"
     fit-margin-right="0"
     fit-margin-bottom="0"
     inkscape:zoom="8"
     inkscape:cx="91.125"
     inkscape:cy="74.8125"
     inkscape:window-width="2560"
     inkscape:window-height="1537"
     inkscape:window-x="1912"
     inkscape:window-y="-8"
     inkscape:window-maximized="1"
     inkscape:current-layer="svg5"
     inkscape:snap-center="false"
     inkscape:snap-to-guides="true"
     inkscape:snap-smooth-nodes="true"
     showguides="true"
     inkscape:snap-page="false"
     inkscape:snap-bbox="true"
     inkscape:bbox-paths="false"
     inkscape:bbox-nodes="true"
     inkscape:object-paths="true"
     inkscape:snap-bbox-edge-midpoints="false"
     inkscape:snap-global="false" />
  <defs
     id="defs2">
    <inkscape:path-effect
       effect="mirror_symmetry"
       start_point="17.855466,22.787238"
       end_point="17.855466,24.837759"
       center_point="17.855466,23.812498"
       id="path-effect3501"
       is_visible="true"
       lpeversion="1.1"
       mode="vertical"
       discard_orig_path="false"
       fuse_paths="false"
       oposite_fuse="false"
       split_items="true"
       split_open="false" />
    <inkscape:path-effect
       effect="mirror_symmetry"
       start_point="20.902083,4.630208"
       end_point="20.902083,22.489583"
       center_point="20.902083,13.559895"
       id="path-effect1259"
       is_visible="true"
       lpeversion="1.1"
       mode="vertical"
       discard_orig_path="false"
       fuse_paths="false"
       oposite_fuse="false"
       split_items="false"
       split_open="false" />
    <inkscape:path-effect
       effect="mirror_symmetry"
       start_point="20.902083,4.630208"
       end_point="20.902083,22.489583"
       center_point="20.902083,13.559895"
       id="path-effect910"
       is_visible="true"
       lpeversion="1.1"
       mode="vertical"
       discard_orig_path="false"
       fuse_paths="false"
       oposite_fuse="false"
       split_items="true"
       split_open="false" />
    <inkscape:path-effect
       effect="fillet_chamfer"
       id="path-effect1774"
       is_visible="true"
       lpeversion="1"
       satellites_param="F,0,0,1,0,0.5,0,1 @ F,0,0,1,0,0.5,0,1 @ F,0,0,1,0,0.5,0,1 @ F,0,0,1,0,0.5,0,1 @ F,0,0,1,0,0.5,0,1 @ F,0,0,1,0,0.5,0,1"
       unit="px"
       method="auto"
       mode="F"
       radius="0.5"
       chamfer_steps="1"
       flexible="false"
       use_knot_distance="true"
       apply_no_radius="true"
       apply_with_radius="true"
       only_selected="false"
       hide_knots="false" />
    <inkscape:path-effect
       effect="mirror_symmetry"
       start_point="49.981932,41.674552"
       end_point="49.981932,59.533927"
       center_point="49.981932,50.604239"
       id="path-effect1076"
       is_visible="true"
       lpeversion="1.1"
       mode="vertical"
       discard_orig_path="false"
       fuse_paths="false"
       oposite_fuse="false"
       split_items="true"
       split_open="false" />
    <inkscape:path-effect
       effect="copy_rotate"
       starting_point="0,0"
       origin="39.27,50.6"
       id="path-effect879"
       is_visible="true"
       lpeversion="1"
       method="normal"
       num_copies="8"
       starting_angle="0"
       rotation_angle="45"
       gap="0"
       copies_to_360="true"
       mirror_copies="false"
       split_items="true" />
    <inkscape:path-effect
       effect="fillet_chamfer"
       id="path-effect19039"
       is_visible="true"
       lpeversion="1"
       satellites_param="F,0,0,1,0,0,0,1 @ F,0,0,1,0,0,0,1 @ F,0,0,1,0,0,0,1 @ F,0,0,1,0,0,0,1 @ F,0,0,1,0,0,0,1 @ F,0,0,1,0,0,0,1 @ F,0,0,1,0,0,0,1 @ F,0,0,1,0,0,0,1"
       unit="px"
       method="auto"
       mode="F"
       radius="0"
       chamfer_steps="1"
       flexible="false"
       use_knot_distance="true"
       apply_no_radius="true"
       apply_with_radius="true"
       only_selected="false"
       hide_knots="false" />
    <inkscape:path-effect
       effect="copy_rotate"
       starting_point="0,0"
       origin="39.8,51.25"
       id="path-effect19035"
       is_visible="true"
       lpeversion="1"
       method="normal"
       num_copies="8"
       starting_angle="0"
       rotation_angle="45"
       gap="0"
       copies_to_360="true"
       mirror_copies="false"
       split_items="false" />
    <inkscape:path-effect
       effect="copy_rotate"
       starting_point="0,0"
       origin="50,70"
       id="path-effect18955"
       is_visible="true"
       lpeversion="1"
       method="normal"
       num_copies="8"
       starting_angle="0"
       rotation_angle="45"
       gap="0"
       copies_to_360="true"
       mirror_copies="false"
       split_items="false" />
    <inkscape:path-effect
       effect="fillet_chamfer"
       id="path-effect18869"
       is_visible="true"
       lpeversion="1"
       satellites_param="F,0,0,1,0,1,0,1 @ F,0,0,1,0,1,0,1 @ F,0,0,1,0,1,0,1 @ F,0,0,1,0,1,0,1 @ F,0,0,1,0,1,0,1 @ F,0,0,1,0,1,0,1 @ F,0,0,1,0,1,0,1 @ F,0,0,1,0,1,0,1 @ F,0,0,1,0,1,0,1 @ F,0,0,1,0,1,0,1"
       unit="px"
       method="auto"
       mode="F"
       radius="1"
       chamfer_steps="1"
       flexible="false"
       use_knot_distance="true"
       apply_no_radius="true"
       apply_with_radius="true"
       only_selected="true"
       hide_knots="false" />
    <inkscape:path-effect
       effect="copy_rotate"
       starting_point="0,0"
       origin="-50,-50"
       id="path-effect13342"
       is_visible="true"
       lpeversion="1"
       method="normal"
       num_copies="8"
       starting_angle="0"
       rotation_angle="60"
       gap="0"
       copies_to_360="true"
       mirror_copies="false"
       split_items="true" />
    <inkscape:path-effect
       effect="copy_rotate"
       starting_point="0,0"
       origin="-40,-40"
       id="path-effect12657"
       is_visible="true"
       lpeversion="1"
       method="normal"
       num_copies="8"
       starting_angle="0"
       rotation_angle="60"
       gap="100"
       copies_to_360="true"
       mirror_copies="false"
       split_items="false" />
    <inkscape:path-effect
       effect="copy_rotate"
       starting_point="0,0"
       origin="2,12"
       id="path-effect12655"
       is_visible="true"
       lpeversion="1"
       method="normal"
       num_copies="8"
       starting_angle="0"
       rotation_angle="60"
       gap="0.02"
       copies_to_360="true"
       mirror_copies="false"
       split_items="false" />
    <inkscape:path-effect
       effect="copy_rotate"
       starting_point="0,0"
       origin="35.45,46.618946"
       id="path-effect10400"
       is_visible="true"
       lpeversion="1"
       method="normal"
       num_copies="8"
       starting_angle="0"
       rotation_angle="60"
       gap="100"
       copies_to_360="true"
       mirror_copies="false"
       split_items="false" />
    <inkscape:path-effect
       effect="copy_rotate"
       starting_point="0,0"
       origin="35.45,46.618946"
       id="path-effect9727"
       is_visible="true"
       lpeversion="1"
       method="normal"
       num_copies="8"
       starting_angle="0"
       rotation_angle="60"
       gap="100"
       copies_to_360="true"
       mirror_copies="false"
       split_items="false" />
  </defs>
  <path
     style="fill:#818181;fill-opacity:0.502008;stroke:none;stroke-width:0.264583px;stroke-linecap:butt;stroke-linejoin:miter;stroke-opacity:1"
     d="m 1.322917,5.130208 v 16.859375 c 0,0.276142 0.2238576,0.5 0.5,0.5 h 16.197916 c 0.324061,0 0.638878,-0.108016 0.894676,-0.30697 l 1.591898,-1.238143 c 0.249023,-0.193685 0.394676,-0.491492 0.394676,-0.80697 v -9.054167 c 0,-0.318635 -0.133581,-0.622676 -0.368265,-0.838203 L 14.788057,4.9684105 C 14.551213,4.7509012 14.241359,4.630208 13.919792,4.630208 H 1.822917 c -0.2761424,0 -0.5,0.2238576 -0.5,0.5 z m 41.936457,0 v 16.859375 c 0,0.276142 -0.223857,0.5 -0.5,0.5 H 26.561458 c -0.324061,0 -0.638877,-0.108016 -0.894676,-0.30697 L 24.074885,20.94447 C 23.825861,20.750785 23.680208,20.452978 23.680208,20.1375 v -9.054167 c 0,-0.318635 0.133581,-0.622676 0.368265,-0.838203 L 29.794235,4.9684105 C 30.031078,4.7509012 30.340933,4.630208 30.662499,4.630208 h 12.096875 c 0.276143,0 0.5,0.2238576 0.5,0.5 z"
     id="path1526"
     sodipodi:nodetypes="ccccccc"
     inkscape:path-effect="#path-effect1774;#path-effect1259"
     inkscape:original-d="M 1.322917,4.630208 V 22.489583 H 18.520833 L 20.902083,20.6375 V 10.583333 L 14.419792,4.630208 Z" />
  <rect
     style="fill:none;stroke:#868686;stroke-width:0.264583;stroke-linejoin:round;stroke-miterlimit:4;stroke-dasharray:none;stroke-opacity:1"
     id="rect846"
     width="44.317707"
     height="25.135416"
     x="0.1322913"
     y="0.13229175"
     rx="0.26458332"
     ry="0.26458332"
     inkscape:label="rect846" />
  <g
     id="g907"
     inkscape:label="g907"
     transform="translate(24.407635)">
    <circle
       style="fill:none;fill-opacity:0.258741;stroke:#353535;stroke-width:0.929287;stroke-linejoin:round;stroke-miterlimit:4;stroke-dasharray:22.3029, 0.929287;stroke-dashoffset:5.57572;stroke-opacity:1"
       id="path14890"
       inkscape:label="wheel-4"
       r="7.4046879"
       cy="13.559896"
       cx="10.087246" />
    <circle
       style="stroke-width:0"
       id="path9452"
       cx="10.087246"
       cy="13.559899"
       r="1.6994824"
       inkscape:label="button-22"
       class="dm2-button" />
    <g
       id="g875"
       inkscape:path-effect="#path-effect879"
       style="stroke-width:0.846535"
       inkscape:label="button-7"
       transform="matrix(1.1812856,0,0,1.1812856,-36.297483,-46.21817)">
      <path
         id="path17805"
         d="m 39.266307,44.965307 c -0.612161,0.0041 -1.218977,0.107781 -1.796753,0.306526 -0.138166,0.04753 -0.202526,0.201247 -0.146328,0.336133 l 1.318876,3.165573 c 0.0562,0.134887 0.177107,0.218365 0.272805,0.197725 0.05768,-0.01255 0.115983,-0.02204 0.174666,-0.02842 0.05871,-0.0062 0.117699,-0.0093 0.176734,-0.0093 0.05817,6.7e-5 0.116301,0.0032 0.174149,0.0093 0.05797,0.0061 0.115584,0.01525 0.172599,0.02739 0.09423,0.02022 0.213561,-0.06406 0.269188,-0.199186 l 1.31009,-3.182288 c 0.05563,-0.135122 -0.0096,-0.287976 -0.148233,-0.334174 -0.572726,-0.190876 -1.172954,-0.288727 -1.777793,-0.289276 z"
         style="stroke-width:0.422839"
         inkscape:original-d="m 39.266307,44.965307 c -0.612161,0.0041 -1.218977,0.107781 -1.796753,0.306526 -0.138166,0.04753 -0.202526,0.201247 -0.146328,0.336133 l 1.318876,3.165573 c 0.0562,0.134887 0.177107,0.218365 0.272805,0.197725 0.05768,-0.01255 0.115983,-0.02204 0.174666,-0.02842 0.05871,-0.0062 0.117699,-0.0093 0.176734,-0.0093 0.05817,6.7e-5 0.116301,0.0032 0.174149,0.0093 0.05797,0.0061 0.115584,0.01525 0.172599,0.02739 0.09423,0.02022 0.213561,-0.06406 0.269188,-0.199186 l 1.31009,-3.182288 c 0.05563,-0.135122 -0.0096,-0.287976 -0.148233,-0.334174 -0.572726,-0.190876 -1.172954,-0.288727 -1.777793,-0.289276 z"
         class="dm2-buttons dm2-button" />
      <path
         fill="none"
         height="1.0583333"
         width="1.0583333"
         id="rect19332"
         x="38.728382"
         y="45.674713"
         style="stroke-width:30.4753"
         sodipodi:type="rect"
         d="m 38.728382,45.674713 h 1.058333 v 1.058333 h -1.058333 z" />
      <path
         d="m 39.257549,46.071587 c 0.07276,0 0.132291,0.05953 0.132291,0.132292 0,0.07276 -0.05953,0.132291 -0.132291,0.132291 -0.07276,0 -0.132292,-0.05953 -0.132292,-0.132291 0,-0.07276 0.05953,-0.132292 0.132292,-0.132292 m 0,-0.08819 c -0.121709,0 -0.220486,0.09878 -0.220486,0.220486 0,0.121708 0.09878,0.220486 0.220486,0.220486 0.121708,0 0.220486,-0.09878 0.220486,-0.220486 0,-0.121709 -0.09878,-0.220486 -0.220486,-0.220486 z m -0.440973,0.264583 h 0.08819 c 0.02425,0 0.0441,-0.01984 0.0441,-0.0441 0,-0.02425 -0.01984,-0.0441 -0.0441,-0.0441 h -0.08819 c -0.02425,0 -0.0441,0.01984 -0.0441,0.0441 0,0.02425 0.01984,0.0441 0.0441,0.0441 z m 0.79375,0 h 0.08819 c 0.02425,0 0.0441,-0.01984 0.0441,-0.0441 0,-0.02425 -0.01984,-0.0441 -0.0441,-0.0441 h -0.08819 c -0.02425,0 -0.0441,0.01984 -0.0441,0.0441 0,0.02425 0.01984,0.0441 0.0441,0.0441 z m -0.396875,-0.48507 v 0.08819 c 0,0.02425 0.01984,0.0441 0.0441,0.0441 0.02425,0 0.0441,-0.01984 0.0441,-0.0441 v -0.08819 c 0,-0.02425 -0.01984,-0.0441 -0.0441,-0.0441 -0.02425,0 -0.0441,0.01984 -0.0441,0.0441 z m 0,0.79375 v 0.0882 c 0,0.02425 0.01984,0.0441 0.0441,0.0441 0.02425,0 0.0441,-0.01984 0.0441,-0.0441 v -0.0882 c 0,-0.02425 -0.01984,-0.0441 -0.0441,-0.0441 -0.02425,0 -0.0441,0.01984 -0.0441,0.0441 z m -0.220927,-0.679979 c -0.0172,-0.0172 -0.04542,-0.0172 -0.06218,0 -0.0172,0.0172 -0.0172,0.04542 0,0.06218 l 0.04674,0.04674 c 0.0172,0.0172 0.04542,0.0172 0.06218,0 0.01676,-0.0172 0.0172,-0.04542 0,-0.06218 z m 0.545483,0.545483 c -0.0172,-0.0172 -0.04542,-0.0172 -0.06218,0 -0.0172,0.0172 -0.0172,0.04542 0,0.06218 l 0.04674,0.04674 c 0.0172,0.0172 0.04542,0.0172 0.06218,0 0.0172,-0.0172 0.0172,-0.04542 0,-0.06218 z m 0.04674,-0.483306 c 0.0172,-0.0172 0.0172,-0.04542 0,-0.06218 -0.0172,-0.0172 -0.04542,-0.0172 -0.06218,0 l -0.04674,0.04674 c -0.0172,0.0172 -0.0172,0.04542 0,0.06218 0.0172,0.01676 0.04542,0.0172 0.06218,0 z m -0.545483,0.545483 c 0.0172,-0.0172 0.0172,-0.04542 0,-0.06218 -0.0172,-0.0172 -0.04542,-0.0172 -0.06218,0 l -0.04674,0.04674 c -0.0172,0.0172 -0.0172,0.04542 0,0.06218 0.0172,0.01676 0.04542,0.0172 0.06218,0 z"
         id="path19334"
         style="fill:#ffffff;fill-opacity:0.201299;stroke-width:0.223978;stroke-miterlimit:4;stroke-dasharray:none"
         inkscape:original-d="m 39.257549,46.071587 c 0.07276,0 0.132291,0.05953 0.132291,0.132292 0,0.07276 -0.05953,0.132291 -0.132291,0.132291 -0.07276,0 -0.132292,-0.05953 -0.132292,-0.132291 0,-0.07276 0.05953,-0.132292 0.132292,-0.132292 m 0,-0.08819 c -0.121709,0 -0.220486,0.09878 -0.220486,0.220486 0,0.121708 0.09878,0.220486 0.220486,0.220486 0.121708,0 0.220486,-0.09878 0.220486,-0.220486 0,-0.121709 -0.09878,-0.220486 -0.220486,-0.220486 z m -0.440973,0.264583 h 0.08819 c 0.02425,0 0.0441,-0.01984 0.0441,-0.0441 0,-0.02425 -0.01984,-0.0441 -0.0441,-0.0441 h -0.08819 c -0.02425,0 -0.0441,0.01984 -0.0441,0.0441 0,0.02425 0.01984,0.0441 0.0441,0.0441 z m 0.79375,0 h 0.08819 c 0.02425,0 0.0441,-0.01984 0.0441,-0.0441 0,-0.02425 -0.01984,-0.0441 -0.0441,-0.0441 h -0.08819 c -0.02425,0 -0.0441,0.01984 -0.0441,0.0441 0,0.02425 0.01984,0.0441 0.0441,0.0441 z m -0.396875,-0.48507 v 0.08819 c 0,0.02425 0.01984,0.0441 0.0441,0.0441 0.02425,0 0.0441,-0.01984 0.0441,-0.0441 v -0.08819 c 0,-0.02425 -0.01984,-0.0441 -0.0441,-0.0441 -0.02425,0 -0.0441,0.01984 -0.0441,0.0441 z m 0,0.79375 v 0.0882 c 0,0.02425 0.01984,0.0441 0.0441,0.0441 0.02425,0 0.0441,-0.01984 0.0441,-0.0441 v -0.0882 c 0,-0.02425 -0.01984,-0.0441 -0.0441,-0.0441 -0.02425,0 -0.0441,0.01984 -0.0441,0.0441 z m -0.220927,-0.679979 c -0.0172,-0.0172 -0.04542,-0.0172 -0.06218,0 -0.0172,0.0172 -0.0172,0.04542 0,0.06218 l 0.04674,0.04674 c 0.0172,0.0172 0.04542,0.0172 0.06218,0 0.01676,-0.0172 0.0172,-0.04542 0,-0.06218 z m 0.545483,0.545483 c -0.0172,-0.0172 -0.04542,-0.0172 -0.06218,0 -0.0172,0.0172 -0.0172,0.04542 0,0.06218 l 0.04674,0.04674 c 0.0172,0.0172 0.04542,0.0172 0.06218,0 0.0172,-0.0172 0.0172,-0.04542 0,-0.06218 z m 0.04674,-0.483306 c 0.0172,-0.0172 0.0172,-0.04542 0,-0.06218 -0.0172,-0.0172 -0.04542,-0.0172 -0.06218,0 l -0.04674,0.04674 c -0.0172,0.0172 -0.0172,0.04542 0,0.06218 0.0172,0.01676 0.04542,0.0172 0.06218,0 z m -0.545483,0.545483 c 0.0172,-0.0172 0.0172,-0.04542 0,-0.06218 -0.0172,-0.0172 -0.04542,-0.0172 -0.06218,0 l -0.04674,0.04674 c -0.0172,0.0172 -0.0172,0.04542 0,0.06218 0.0172,0.01676 0.04542,0.0172 0.06218,0 z" />
    </g>
    <g
       transform="matrix(0.83529506,-0.83529506,0.83529506,0.83529506,-64.976364,4.0909883)"
       id="rotated-0-path-effect879"
       style="display:inline;stroke-width:0.846535"
       inkscape:label="button-0">
      <path
         style="stroke-width:0.422839"
         id="path1195"
         d="m 39.266307,44.965307 c -0.612161,0.0041 -1.218977,0.107781 -1.796753,0.306526 -0.138166,0.04753 -0.202526,0.201247 -0.146328,0.336133 l 1.318876,3.165573 c 0.0562,0.134887 0.177107,0.218365 0.272805,0.197725 0.05768,-0.01255 0.115983,-0.02204 0.174666,-0.02842 0.05871,-0.0062 0.117699,-0.0093 0.176734,-0.0093 0.05817,6.7e-5 0.116301,0.0032 0.174149,0.0093 0.05797,0.0061 0.115584,0.01525 0.172599,0.02739 0.09423,0.02022 0.213561,-0.06406 0.269188,-0.199186 l 1.31009,-3.182288 c 0.05563,-0.135122 -0.0096,-0.287976 -0.148233,-0.334174 -0.572726,-0.190876 -1.172954,-0.288727 -1.777793,-0.289276 z"
         class="dm2-button" />
      <path
         style="stroke-width:30.4753"
         id="path1197"
         d="m 38.728382,45.674713 h 1.058333 v 1.058333 h -1.058333 z"
         fill="none" />
      <path
         style="fill:#ffffff;fill-opacity:0.201299;stroke-width:0.223978;stroke-miterlimit:4;stroke-dasharray:none"
         id="path1199"
         d="m 39.257549,46.071587 c 0.07276,0 0.132291,0.05953 0.132291,0.132292 0,0.07276 -0.05953,0.132291 -0.132291,0.132291 -0.07276,0 -0.132292,-0.05953 -0.132292,-0.132291 0,-0.07276 0.05953,-0.132292 0.132292,-0.132292 m 0,-0.08819 c -0.121709,0 -0.220486,0.09878 -0.220486,0.220486 0,0.121708 0.09878,0.220486 0.220486,0.220486 0.121708,0 0.220486,-0.09878 0.220486,-0.220486 0,-0.121709 -0.09878,-0.220486 -0.220486,-0.220486 z m -0.440973,0.264583 h 0.08819 c 0.02425,0 0.0441,-0.01984 0.0441,-0.0441 0,-0.02425 -0.01984,-0.0441 -0.0441,-0.0441 h -0.08819 c -0.02425,0 -0.0441,0.01984 -0.0441,0.0441 0,0.02425 0.01984,0.0441 0.0441,0.0441 z m 0.79375,0 h 0.08819 c 0.02425,0 0.0441,-0.01984 0.0441,-0.0441 0,-0.02425 -0.01984,-0.0441 -0.0441,-0.0441 h -0.08819 c -0.02425,0 -0.0441,0.01984 -0.0441,0.0441 0,0.02425 0.01984,0.0441 0.0441,0.0441 z m -0.396875,-0.48507 v 0.08819 c 0,0.02425 0.01984,0.0441 0.0441,0.0441 0.02425,0 0.0441,-0.01984 0.0441,-0.0441 v -0.08819 c 0,-0.02425 -0.01984,-0.0441 -0.0441,-0.0441 -0.02425,0 -0.0441,0.01984 -0.0441,0.0441 z m 0,0.79375 v 0.0882 c 0,0.02425 0.01984,0.0441 0.0441,0.0441 0.02425,0 0.0441,-0.01984 0.0441,-0.0441 v -0.0882 c 0,-0.02425 -0.01984,-0.0441 -0.0441,-0.0441 -0.02425,0 -0.0441,0.01984 -0.0441,0.0441 z m -0.220927,-0.679979 c -0.0172,-0.0172 -0.04542,-0.0172 -0.06218,0 -0.0172,0.0172 -0.0172,0.04542 0,0.06218 l 0.04674,0.04674 c 0.0172,0.0172 0.04542,0.0172 0.06218,0 0.01676,-0.0172 0.0172,-0.04542 0,-0.06218 z m 0.545483,0.545483 c -0.0172,-0.0172 -0.04542,-0.0172 -0.06218,0 -0.0172,0.0172 -0.0172,0.04542 0,0.06218 l 0.04674,0.04674 c 0.0172,0.0172 0.04542,0.0172 0.06218,0 0.0172,-0.0172 0.0172,-0.04542 0,-0.06218 z m 0.04674,-0.483306 c 0.0172,-0.0172 0.0172,-0.04542 0,-0.06218 -0.0172,-0.0172 -0.04542,-0.0172 -0.06218,0 l -0.04674,0.04674 c -0.0172,0.0172 -0.0172,0.04542 0,0.06218 0.0172,0.01676 0.04542,0.0172 0.06218,0 z m -0.545483,0.545483 c 0.0172,-0.0172 0.0172,-0.04542 0,-0.06218 -0.0172,-0.0172 -0.04542,-0.0172 -0.06218,0 l -0.04674,0.04674 c -0.0172,0.0172 -0.0172,0.04542 0,0.06218 0.0172,0.01676 0.04542,0.0172 0.06218,0 z" />
    </g>
    <g
       transform="matrix(0,-1.1812856,1.1812856,0,-49.681449,59.943967)"
       id="rotated-1-path-effect879"
       style="display:inline;stroke-width:0.846535"
       inkscape:label="button-1">
      <path
         style="stroke-width:0.422839"
         id="path1202"
         d="m 39.266307,44.965307 c -0.612161,0.0041 -1.218977,0.107781 -1.796753,0.306526 -0.138166,0.04753 -0.202526,0.201247 -0.146328,0.336133 l 1.318876,3.165573 c 0.0562,0.134887 0.177107,0.218365 0.272805,0.197725 0.05768,-0.01255 0.115983,-0.02204 0.174666,-0.02842 0.05871,-0.0062 0.117699,-0.0093 0.176734,-0.0093 0.05817,6.7e-5 0.116301,0.0032 0.174149,0.0093 0.05797,0.0061 0.115584,0.01525 0.172599,0.02739 0.09423,0.02022 0.213561,-0.06406 0.269188,-0.199186 l 1.31009,-3.182288 c 0.05563,-0.135122 -0.0096,-0.287976 -0.148233,-0.334174 -0.572726,-0.190876 -1.172954,-0.288727 -1.777793,-0.289276 z"
         class="dm2-button" />
      <path
         style="stroke-width:30.4753"
         id="path1204"
         d="m 38.728382,45.674713 h 1.058333 v 1.058333 h -1.058333 z"
         fill="none" />
      <path
         style="fill:#ffffff;fill-opacity:0.201299;stroke-width:0.223978;stroke-miterlimit:4;stroke-dasharray:none"
         id="path1206"
         d="m 39.257549,46.071587 c 0.07276,0 0.132291,0.05953 0.132291,0.132292 0,0.07276 -0.05953,0.132291 -0.132291,0.132291 -0.07276,0 -0.132292,-0.05953 -0.132292,-0.132291 0,-0.07276 0.05953,-0.132292 0.132292,-0.132292 m 0,-0.08819 c -0.121709,0 -0.220486,0.09878 -0.220486,0.220486 0,0.121708 0.09878,0.220486 0.220486,0.220486 0.121708,0 0.220486,-0.09878 0.220486,-0.220486 0,-0.121709 -0.09878,-0.220486 -0.220486,-0.220486 z m -0.440973,0.264583 h 0.08819 c 0.02425,0 0.0441,-0.01984 0.0441,-0.0441 0,-0.02425 -0.01984,-0.0441 -0.0441,-0.0441 h -0.08819 c -0.02425,0 -0.0441,0.01984 -0.0441,0.0441 0,0.02425 0.01984,0.0441 0.0441,0.0441 z m 0.79375,0 h 0.08819 c 0.02425,0 0.0441,-0.01984 0.0441,-0.0441 0,-0.02425 -0.01984,-0.0441 -0.0441,-0.0441 h -0.08819 c -0.02425,0 -0.0441,0.01984 -0.0441,0.0441 0,0.02425 0.01984,0.0441 0.0441,0.0441 z m -0.396875,-0.48507 v 0.08819 c 0,0.02425 0.01984,0.0441 0.0441,0.0441 0.02425,0 0.0441,-0.01984 0.0441,-0.0441 v -0.08819 c 0,-0.02425 -0.01984,-0.0441 -0.0441,-0.0441 -0.02425,0 -0.0441,0.01984 -0.0441,0.0441 z m 0,0.79375 v 0.0882 c 0,0.02425 0.01984,0.0441 0.0441,0.0441 0.02425,0 0.0441,-0.01984 0.0441,-0.0441 v -0.0882 c 0,-0.02425 -0.01984,-0.0441 -0.0441,-0.0441 -0.02425,0 -0.0441,0.01984 -0.0441,0.0441 z m -0.220927,-0.679979 c -0.0172,-0.0172 -0.04542,-0.0172 -0.06218,0 -0.0172,0.0172 -0.0172,0.04542 0,0.06218 l 0.04674,0.04674 c 0.0172,0.0172 0.04542,0.0172 0.06218,0 0.01676,-0.0172 0.0172,-0.04542 0,-0.06218 z m 0.545483,0.545483 c -0.0172,-0.0172 -0.04542,-0.0172 -0.06218,0 -0.0172,0.0172 -0.0172,0.04542 0,0.06218 l 0.04674,0.04674 c 0.0172,0.0172 0.04542,0.0172 0.06218,0 0.0172,-0.0172 0.0172,-0.04542 0,-0.06218 z m 0.04674,-0.483306 c 0.0172,-0.0172 0.0172,-0.04542 0,-0.06218 -0.0172,-0.0172 -0.04542,-0.0172 -0.06218,0 l -0.04674,0.04674 c -0.0172,0.0172 -0.0172,0.04542 0,0.06218 0.0172,0.01676 0.04542,0.0172 0.06218,0 z m -0.545483,0.545483 c 0.0172,-0.0172 0.0172,-0.04542 0,-0.06218 -0.0172,-0.0172 -0.04542,-0.0172 -0.06218,0 l -0.04674,0.04674 c -0.0172,0.0172 -0.0172,0.04542 0,0.06218 0.0172,0.01676 0.04542,0.0172 0.06218,0 z" />
    </g>
    <g
       transform="matrix(-0.83529506,-0.83529506,0.83529506,-0.83529506,0.6277095,88.622848)"
       id="rotated-2-path-effect879"
       style="display:inline;stroke-width:0.846535"
       inkscape:label="button-2">
      <path
         style="stroke-width:0.422839"
         id="path1209"
         d="m 39.266307,44.965307 c -0.612161,0.0041 -1.218977,0.107781 -1.796753,0.306526 -0.138166,0.04753 -0.202526,0.201247 -0.146328,0.336133 l 1.318876,3.165573 c 0.0562,0.134887 0.177107,0.218365 0.272805,0.197725 0.05768,-0.01255 0.115983,-0.02204 0.174666,-0.02842 0.05871,-0.0062 0.117699,-0.0093 0.176734,-0.0093 0.05817,6.7e-5 0.116301,0.0032 0.174149,0.0093 0.05797,0.0061 0.115584,0.01525 0.172599,0.02739 0.09423,0.02022 0.213561,-0.06406 0.269188,-0.199186 l 1.31009,-3.182288 c 0.05563,-0.135122 -0.0096,-0.287976 -0.148233,-0.334174 -0.572726,-0.190876 -1.172954,-0.288727 -1.777793,-0.289276 z"
         class="dm2-button" />
      <path
         style="stroke-width:30.4753"
         id="path1211"
         d="m 38.728382,45.674713 h 1.058333 v 1.058333 h -1.058333 z"
         fill="none" />
      <path
         style="fill:#ffffff;fill-opacity:0.201299;stroke-width:0.223978;stroke-miterlimit:4;stroke-dasharray:none"
         id="path1213"
         d="m 39.257549,46.071587 c 0.07276,0 0.132291,0.05953 0.132291,0.132292 0,0.07276 -0.05953,0.132291 -0.132291,0.132291 -0.07276,0 -0.132292,-0.05953 -0.132292,-0.132291 0,-0.07276 0.05953,-0.132292 0.132292,-0.132292 m 0,-0.08819 c -0.121709,0 -0.220486,0.09878 -0.220486,0.220486 0,0.121708 0.09878,0.220486 0.220486,0.220486 0.121708,0 0.220486,-0.09878 0.220486,-0.220486 0,-0.121709 -0.09878,-0.220486 -0.220486,-0.220486 z m -0.440973,0.264583 h 0.08819 c 0.02425,0 0.0441,-0.01984 0.0441,-0.0441 0,-0.02425 -0.01984,-0.0441 -0.0441,-0.0441 h -0.08819 c -0.02425,0 -0.0441,0.01984 -0.0441,0.0441 0,0.02425 0.01984,0.0441 0.0441,0.0441 z m 0.79375,0 h 0.08819 c 0.02425,0 0.0441,-0.01984 0.0441,-0.0441 0,-0.02425 -0.01984,-0.0441 -0.0441,-0.0441 h -0.08819 c -0.02425,0 -0.0441,0.01984 -0.0441,0.0441 0,0.02425 0.01984,0.0441 0.0441,0.0441 z m -0.396875,-0.48507 v 0.08819 c 0,0.02425 0.01984,0.0441 0.0441,0.0441 0.02425,0 0.0441,-0.01984 0.0441,-0.0441 v -0.08819 c 0,-0.02425 -0.01984,-0.0441 -0.0441,-0.0441 -0.02425,0 -0.0441,0.01984 -0.0441,0.0441 z m 0,0.79375 v 0.0882 c 0,0.02425 0.01984,0.0441 0.0441,0.0441 0.02425,0 0.0441,-0.01984 0.0441,-0.0441 v -0.0882 c 0,-0.02425 -0.01984,-0.0441 -0.0441,-0.0441 -0.02425,0 -0.0441,0.01984 -0.0441,0.0441 z m -0.220927,-0.679979 c -0.0172,-0.0172 -0.04542,-0.0172 -0.06218,0 -0.0172,0.0172 -0.0172,0.04542 0,0.06218 l 0.04674,0.04674 c 0.0172,0.0172 0.04542,0.0172 0.06218,0 0.01676,-0.0172 0.0172,-0.04542 0,-0.06218 z m 0.545483,0.545483 c -0.0172,-0.0172 -0.04542,-0.0172 -0.06218,0 -0.0172,0.0172 -0.0172,0.04542 0,0.06218 l 0.04674,0.04674 c 0.0172,0.0172 0.04542,0.0172 0.06218,0 0.0172,-0.0172 0.0172,-0.04542 0,-0.06218 z m 0.04674,-0.483306 c 0.0172,-0.0172 0.0172,-0.04542 0,-0.06218 -0.0172,-0.0172 -0.04542,-0.0172 -0.06218,0 l -0.04674,0.04674 c -0.0172,0.0172 -0.0172,0.04542 0,0.06218 0.0172,0.01676 0.04542,0.0172 0.06218,0 z m -0.545483,0.545483 c 0.0172,-0.0172 0.0172,-0.04542 0,-0.06218 -0.0172,-0.0172 -0.04542,-0.0172 -0.06218,0 l -0.04674,0.04674 c -0.0172,0.0172 -0.0172,0.04542 0,0.06218 0.0172,0.01676 0.04542,0.0172 0.06218,0 z" />
    </g>
    <g
       transform="matrix(-1.1812856,0,0,-1.1812856,56.480688,73.327933)"
       id="rotated-3-path-effect879"
       style="display:inline;stroke-width:0.846535"
       inkscape:label="button-3">
      <path
         style="stroke-width:0.422839"
         id="path1216"
         d="m 39.266307,44.965307 c -0.612161,0.0041 -1.218977,0.107781 -1.796753,0.306526 -0.138166,0.04753 -0.202526,0.201247 -0.146328,0.336133 l 1.318876,3.165573 c 0.0562,0.134887 0.177107,0.218365 0.272805,0.197725 0.05768,-0.01255 0.115983,-0.02204 0.174666,-0.02842 0.05871,-0.0062 0.117699,-0.0093 0.176734,-0.0093 0.05817,6.7e-5 0.116301,0.0032 0.174149,0.0093 0.05797,0.0061 0.115584,0.01525 0.172599,0.02739 0.09423,0.02022 0.213561,-0.06406 0.269188,-0.199186 l 1.31009,-3.182288 c 0.05563,-0.135122 -0.0096,-0.287976 -0.148233,-0.334174 -0.572726,-0.190876 -1.172954,-0.288727 -1.777793,-0.289276 z"
         class="dm2-button" />
      <path
         style="stroke-width:30.4753"
         id="path1218"
         d="m 38.728382,45.674713 h 1.058333 v 1.058333 h -1.058333 z"
         fill="none" />
      <path
         style="fill:#ffffff;fill-opacity:0.201299;stroke-width:0.223978;stroke-miterlimit:4;stroke-dasharray:none"
         id="path1220"
         d="m 39.257549,46.071587 c 0.07276,0 0.132291,0.05953 0.132291,0.132292 0,0.07276 -0.05953,0.132291 -0.132291,0.132291 -0.07276,0 -0.132292,-0.05953 -0.132292,-0.132291 0,-0.07276 0.05953,-0.132292 0.132292,-0.132292 m 0,-0.08819 c -0.121709,0 -0.220486,0.09878 -0.220486,0.220486 0,0.121708 0.09878,0.220486 0.220486,0.220486 0.121708,0 0.220486,-0.09878 0.220486,-0.220486 0,-0.121709 -0.09878,-0.220486 -0.220486,-0.220486 z m -0.440973,0.264583 h 0.08819 c 0.02425,0 0.0441,-0.01984 0.0441,-0.0441 0,-0.02425 -0.01984,-0.0441 -0.0441,-0.0441 h -0.08819 c -0.02425,0 -0.0441,0.01984 -0.0441,0.0441 0,0.02425 0.01984,0.0441 0.0441,0.0441 z m 0.79375,0 h 0.08819 c 0.02425,0 0.0441,-0.01984 0.0441,-0.0441 0,-0.02425 -0.01984,-0.0441 -0.0441,-0.0441 h -0.08819 c -0.02425,0 -0.0441,0.01984 -0.0441,0.0441 0,0.02425 0.01984,0.0441 0.0441,0.0441 z m -0.396875,-0.48507 v 0.08819 c 0,0.02425 0.01984,0.0441 0.0441,0.0441 0.02425,0 0.0441,-0.01984 0.0441,-0.0441 v -0.08819 c 0,-0.02425 -0.01984,-0.0441 -0.0441,-0.0441 -0.02425,0 -0.0441,0.01984 -0.0441,0.0441 z m 0,0.79375 v 0.0882 c 0,0.02425 0.01984,0.0441 0.0441,0.0441 0.02425,0 0.0441,-0.01984 0.0441,-0.0441 v -0.0882 c 0,-0.02425 -0.01984,-0.0441 -0.0441,-0.0441 -0.02425,0 -0.0441,0.01984 -0.0441,0.0441 z m -0.220927,-0.679979 c -0.0172,-0.0172 -0.04542,-0.0172 -0.06218,0 -0.0172,0.0172 -0.0172,0.04542 0,0.06218 l 0.04674,0.04674 c 0.0172,0.0172 0.04542,0.0172 0.06218,0 0.01676,-0.0172 0.0172,-0.04542 0,-0.06218 z m 0.545483,0.545483 c -0.0172,-0.0172 -0.04542,-0.0172 -0.06218,0 -0.0172,0.0172 -0.0172,0.04542 0,0.06218 l 0.04674,0.04674 c 0.0172,0.0172 0.04542,0.0172 0.06218,0 0.0172,-0.0172 0.0172,-0.04542 0,-0.06218 z m 0.04674,-0.483306 c 0.0172,-0.0172 0.0172,-0.04542 0,-0.06218 -0.0172,-0.0172 -0.04542,-0.0172 -0.06218,0 l -0.04674,0.04674 c -0.0172,0.0172 -0.0172,0.04542 0,0.06218 0.0172,0.01676 0.04542,0.0172 0.06218,0 z m -0.545483,0.545483 c 0.0172,-0.0172 0.0172,-0.04542 0,-0.06218 -0.0172,-0.0172 -0.04542,-0.0172 -0.06218,0 l -0.04674,0.04674 c -0.0172,0.0172 -0.0172,0.04542 0,0.06218 0.0172,0.01676 0.04542,0.0172 0.06218,0 z" />
    </g>
    <g
       transform="matrix(-0.83529506,0.83529506,-0.83529506,-0.83529506,85.159569,23.018774)"
       id="rotated-4-path-effect879"
       style="display:inline;stroke-width:0.846535"
       inkscape:label="button-4">
      <path
         style="stroke-width:0.422839"
         id="path1223"
         d="m 39.266307,44.965307 c -0.612161,0.0041 -1.218977,0.107781 -1.796753,0.306526 -0.138166,0.04753 -0.202526,0.201247 -0.146328,0.336133 l 1.318876,3.165573 c 0.0562,0.134887 0.177107,0.218365 0.272805,0.197725 0.05768,-0.01255 0.115983,-0.02204 0.174666,-0.02842 0.05871,-0.0062 0.117699,-0.0093 0.176734,-0.0093 0.05817,6.7e-5 0.116301,0.0032 0.174149,0.0093 0.05797,0.0061 0.115584,0.01525 0.172599,0.02739 0.09423,0.02022 0.213561,-0.06406 0.269188,-0.199186 l 1.31009,-3.182288 c 0.05563,-0.135122 -0.0096,-0.287976 -0.148233,-0.334174 -0.572726,-0.190876 -1.172954,-0.288727 -1.777793,-0.289276 z"
         class="dm2-button" />
      <path
         style="stroke-width:30.4753"
         id="path1225"
         d="m 38.728382,45.674713 h 1.058333 v 1.058333 h -1.058333 z"
         fill="none" />
      <path
         style="fill:#ffffff;fill-opacity:0.201299;stroke-width:0.223978;stroke-miterlimit:4;stroke-dasharray:none"
         id="path1227"
         d="m 39.257549,46.071587 c 0.07276,0 0.132291,0.05953 0.132291,0.132292 0,0.07276 -0.05953,0.132291 -0.132291,0.132291 -0.07276,0 -0.132292,-0.05953 -0.132292,-0.132291 0,-0.07276 0.05953,-0.132292 0.132292,-0.132292 m 0,-0.08819 c -0.121709,0 -0.220486,0.09878 -0.220486,0.220486 0,0.121708 0.09878,0.220486 0.220486,0.220486 0.121708,0 0.220486,-0.09878 0.220486,-0.220486 0,-0.121709 -0.09878,-0.220486 -0.220486,-0.220486 z m -0.440973,0.264583 h 0.08819 c 0.02425,0 0.0441,-0.01984 0.0441,-0.0441 0,-0.02425 -0.01984,-0.0441 -0.0441,-0.0441 h -0.08819 c -0.02425,0 -0.0441,0.01984 -0.0441,0.0441 0,0.02425 0.01984,0.0441 0.0441,0.0441 z m 0.79375,0 h 0.08819 c 0.02425,0 0.0441,-0.01984 0.0441,-0.0441 0,-0.02425 -0.01984,-0.0441 -0.0441,-0.0441 h -0.08819 c -0.02425,0 -0.0441,0.01984 -0.0441,0.0441 0,0.02425 0.01984,0.0441 0.0441,0.0441 z m -0.396875,-0.48507 v 0.08819 c 0,0.02425 0.01984,0.0441 0.0441,0.0441 0.02425,0 0.0441,-0.01984 0.0441,-0.0441 v -0.08819 c 0,-0.02425 -0.01984,-0.0441 -0.0441,-0.0441 -0.02425,0 -0.0441,0.01984 -0.0441,0.0441 z m 0,0.79375 v 0.0882 c 0,0.02425 0.01984,0.0441 0.0441,0.0441 0.02425,0 0.0441,-0.01984 0.0441,-0.0441 v -0.0882 c 0,-0.02425 -0.01984,-0.0441 -0.0441,-0.0441 -0.02425,0 -0.0441,0.01984 -0.0441,0.0441 z m -0.220927,-0.679979 c -0.0172,-0.0172 -0.04542,-0.0172 -0.06218,0 -0.0172,0.0172 -0.0172,0.04542 0,0.06218 l 0.04674,0.04674 c 0.0172,0.0172 0.04542,0.0172 0.06218,0 0.01676,-0.0172 0.0172,-0.04542 0,-0.06218 z m 0.545483,0.545483 c -0.0172,-0.0172 -0.04542,-0.0172 -0.06218,0 -0.0172,0.0172 -0.0172,0.04542 0,0.06218 l 0.04674,0.04674 c 0.0172,0.0172 0.04542,0.0172 0.06218,0 0.0172,-0.0172 0.0172,-0.04542 0,-0.06218 z m 0.04674,-0.483306 c 0.0172,-0.0172 0.0172,-0.04542 0,-0.06218 -0.0172,-0.0172 -0.04542,-0.0172 -0.06218,0 l -0.04674,0.04674 c -0.0172,0.0172 -0.0172,0.04542 0,0.06218 0.0172,0.01676 0.04542,0.0172 0.06218,0 z m -0.545483,0.545483 c 0.0172,-0.0172 0.0172,-0.04542 0,-0.06218 -0.0172,-0.0172 -0.04542,-0.0172 -0.06218,0 l -0.04674,0.04674 c -0.0172,0.0172 -0.0172,0.04542 0,0.06218 0.0172,0.01676 0.04542,0.0172 0.06218,0 z" />
    </g>
    <g
       transform="matrix(0,1.1812856,-1.1812856,0,69.864654,-32.834204)"
       id="rotated-5-path-effect879"
       style="display:inline;stroke-width:0.846535"
       inkscape:label="button-5">
      <path
         style="stroke-width:0.422839"
         id="path1230"
         d="m 39.266307,44.965307 c -0.612161,0.0041 -1.218977,0.107781 -1.796753,0.306526 -0.138166,0.04753 -0.202526,0.201247 -0.146328,0.336133 l 1.318876,3.165573 c 0.0562,0.134887 0.177107,0.218365 0.272805,0.197725 0.05768,-0.01255 0.115983,-0.02204 0.174666,-0.02842 0.05871,-0.0062 0.117699,-0.0093 0.176734,-0.0093 0.05817,6.7e-5 0.116301,0.0032 0.174149,0.0093 0.05797,0.0061 0.115584,0.01525 0.172599,0.02739 0.09423,0.02022 0.213561,-0.06406 0.269188,-0.199186 l 1.31009,-3.182288 c 0.05563,-0.135122 -0.0096,-0.287976 -0.148233,-0.334174 -0.572726,-0.190876 -1.172954,-0.288727 -1.777793,-0.289276 z"
         class="dm2-button" />
      <path
         style="stroke-width:30.4753"
         id="path1232"
         d="m 38.728382,45.674713 h 1.058333 v 1.058333 h -1.058333 z"
         fill="none" />
      <path
         style="fill:#ffffff;fill-opacity:0.201299;stroke-width:0.223978;stroke-miterlimit:4;stroke-dasharray:none"
         id="path1234"
         d="m 39.257549,46.071587 c 0.07276,0 0.132291,0.05953 0.132291,0.132292 0,0.07276 -0.05953,0.132291 -0.132291,0.132291 -0.07276,0 -0.132292,-0.05953 -0.132292,-0.132291 0,-0.07276 0.05953,-0.132292 0.132292,-0.132292 m 0,-0.08819 c -0.121709,0 -0.220486,0.09878 -0.220486,0.220486 0,0.121708 0.09878,0.220486 0.220486,0.220486 0.121708,0 0.220486,-0.09878 0.220486,-0.220486 0,-0.121709 -0.09878,-0.220486 -0.220486,-0.220486 z m -0.440973,0.264583 h 0.08819 c 0.02425,0 0.0441,-0.01984 0.0441,-0.0441 0,-0.02425 -0.01984,-0.0441 -0.0441,-0.0441 h -0.08819 c -0.02425,0 -0.0441,0.01984 -0.0441,0.0441 0,0.02425 0.01984,0.0441 0.0441,0.0441 z m 0.79375,0 h 0.08819 c 0.02425,0 0.0441,-0.01984 0.0441,-0.0441 0,-0.02425 -0.01984,-0.0441 -0.0441,-0.0441 h -0.08819 c -0.02425,0 -0.0441,0.01984 -0.0441,0.0441 0,0.02425 0.01984,0.0441 0.0441,0.0441 z m -0.396875,-0.48507 v 0.08819 c 0,0.02425 0.01984,0.0441 0.0441,0.0441 0.02425,0 0.0441,-0.01984 0.0441,-0.0441 v -0.08819 c 0,-0.02425 -0.01984,-0.0441 -0.0441,-0.0441 -0.02425,0 -0.0441,0.01984 -0.0441,0.0441 z m 0,0.79375 v 0.0882 c 0,0.02425 0.01984,0.0441 0.0441,0.0441 0.02425,0 0.0441,-0.01984 0.0441,-0.0441 v -0.0882 c 0,-0.02425 -0.01984,-0.0441 -0.0441,-0.0441 -0.02425,0 -0.0441,0.01984 -0.0441,0.0441 z m -0.220927,-0.679979 c -0.0172,-0.0172 -0.04542,-0.0172 -0.06218,0 -0.0172,0.0172 -0.0172,0.04542 0,0.06218 l 0.04674,0.04674 c 0.0172,0.0172 0.04542,0.0172 0.06218,0 0.01676,-0.0172 0.0172,-0.04542 0,-0.06218 z m 0.545483,0.545483 c -0.0172,-0.0172 -0.04542,-0.0172 -0.06218,0 -0.0172,0.0172 -0.0172,0.04542 0,0.06218 l 0.04674,0.04674 c 0.0172,0.0172 0.04542,0.0172 0.06218,0 0.0172,-0.0172 0.0172,-0.04542 0,-0.06218 z m 0.04674,-0.483306 c 0.0172,-0.0172 0.0172,-0.04542 0,-0.06218 -0.0172,-0.0172 -0.04542,-0.0172 -0.06218,0 l -0.04674,0.04674 c -0.0172,0.0172 -0.0172,0.04542 0,0.06218 0.0172,0.01676 0.04542,0.0172 0.06218,0 z m -0.545483,0.545483 c 0.0172,-0.0172 0.0172,-0.04542 0,-0.06218 -0.0172,-0.0172 -0.04542,-0.0172 -0.06218,0 l -0.04674,0.04674 c -0.0172,0.0172 -0.0172,0.04542 0,0.06218 0.0172,0.01676 0.04542,0.0172 0.06218,0 z" />
    </g>
    <g
       transform="matrix(0.83529506,0.83529506,-0.83529506,0.83529506,19.555496,-61.513086)"
       id="rotated-6-path-effect879"
       style="display:inline;stroke-width:0.846535"
       inkscape:label="button-6">
      <path
         style="stroke-width:0.422839"
         id="path1237"
         d="m 39.266307,44.965307 c -0.612161,0.0041 -1.218977,0.107781 -1.796753,0.306526 -0.138166,0.04753 -0.202526,0.201247 -0.146328,0.336133 l 1.318876,3.165573 c 0.0562,0.134887 0.177107,0.218365 0.272805,0.197725 0.05768,-0.01255 0.115983,-0.02204 0.174666,-0.02842 0.05871,-0.0062 0.117699,-0.0093 0.176734,-0.0093 0.05817,6.7e-5 0.116301,0.0032 0.174149,0.0093 0.05797,0.0061 0.115584,0.01525 0.172599,0.02739 0.09423,0.02022 0.213561,-0.06406 0.269188,-0.199186 l 1.31009,-3.182288 c 0.05563,-0.135122 -0.0096,-0.287976 -0.148233,-0.334174 -0.572726,-0.190876 -1.172954,-0.288727 -1.777793,-0.289276 z"
         class="dm2-button" />
      <path
         style="stroke-width:30.4753"
         id="path1239"
         d="m 38.728382,45.674713 h 1.058333 v 1.058333 h -1.058333 z"
         fill="none" />
      <path
         style="fill:#ffffff;fill-opacity:0.201299;stroke-width:0.223978;stroke-miterlimit:4;stroke-dasharray:none"
         id="path1241"
         d="m 39.257549,46.071587 c 0.07276,0 0.132291,0.05953 0.132291,0.132292 0,0.07276 -0.05953,0.132291 -0.132291,0.132291 -0.07276,0 -0.132292,-0.05953 -0.132292,-0.132291 0,-0.07276 0.05953,-0.132292 0.132292,-0.132292 m 0,-0.08819 c -0.121709,0 -0.220486,0.09878 -0.220486,0.220486 0,0.121708 0.09878,0.220486 0.220486,0.220486 0.121708,0 0.220486,-0.09878 0.220486,-0.220486 0,-0.121709 -0.09878,-0.220486 -0.220486,-0.220486 z m -0.440973,0.264583 h 0.08819 c 0.02425,0 0.0441,-0.01984 0.0441,-0.0441 0,-0.02425 -0.01984,-0.0441 -0.0441,-0.0441 h -0.08819 c -0.02425,0 -0.0441,0.01984 -0.0441,0.0441 0,0.02425 0.01984,0.0441 0.0441,0.0441 z m 0.79375,0 h 0.08819 c 0.02425,0 0.0441,-0.01984 0.0441,-0.0441 0,-0.02425 -0.01984,-0.0441 -0.0441,-0.0441 h -0.08819 c -0.02425,0 -0.0441,0.01984 -0.0441,0.0441 0,0.02425 0.01984,0.0441 0.0441,0.0441 z m -0.396875,-0.48507 v 0.08819 c 0,0.02425 0.01984,0.0441 0.0441,0.0441 0.02425,0 0.0441,-0.01984 0.0441,-0.0441 v -0.08819 c 0,-0.02425 -0.01984,-0.0441 -0.0441,-0.0441 -0.02425,0 -0.0441,0.01984 -0.0441,0.0441 z m 0,0.79375 v 0.0882 c 0,0.02425 0.01984,0.0441 0.0441,0.0441 0.02425,0 0.0441,-0.01984 0.0441,-0.0441 v -0.0882 c 0,-0.02425 -0.01984,-0.0441 -0.0441,-0.0441 -0.02425,0 -0.0441,0.01984 -0.0441,0.0441 z m -0.220927,-0.679979 c -0.0172,-0.0172 -0.04542,-0.0172 -0.06218,0 -0.0172,0.0172 -0.0172,0.04542 0,0.06218 l 0.04674,0.04674 c 0.0172,0.0172 0.04542,0.0172 0.06218,0 0.01676,-0.0172 0.0172,-0.04542 0,-0.06218 z m 0.545483,0.545483 c -0.0172,-0.0172 -0.04542,-0.0172 -0.06218,0 -0.0172,0.0172 -0.0172,0.04542 0,0.06218 l 0.04674,0.04674 c 0.0172,0.0172 0.04542,0.0172 0.06218,0 0.0172,-0.0172 0.0172,-0.04542 0,-0.06218 z m 0.04674,-0.483306 c 0.0172,-0.0172 0.0172,-0.04542 0,-0.06218 -0.0172,-0.0172 -0.04542,-0.0172 -0.06218,0 l -0.04674,0.04674 c -0.0172,0.0172 -0.0172,0.04542 0,0.06218 0.0172,0.01676 0.04542,0.0172 0.06218,0 z m -0.545483,0.545483 c 0.0172,-0.0172 0.0172,-0.04542 0,-0.06218 -0.0172,-0.0172 -0.04542,-0.0172 -0.06218,0 l -0.04674,0.04674 c -0.0172,0.0172 -0.0172,0.04542 0,0.06218 0.0172,0.01676 0.04542,0.0172 0.06218,0 z" />
    </g>
  </g>
  <g
     id="g1401"
     inkscape:label="g907">
    <circle
       style="fill:none;fill-opacity:0.258741;stroke:#353535;stroke-width:0.929287;stroke-linejoin:round;stroke-miterlimit:4;stroke-dasharray:22.3029, 0.929287;stroke-dashoffset:5.57572;stroke-opacity:1"
       id="circle1333"
       inkscape:label="wheel-3"
       r="7.4046879"
       cy="13.559896"
       cx="10.087246" />
    <circle
       style="stroke-width:0"
       id="circle1335"
       cx="10.087246"
       cy="13.559899"
       r="1.6994824"
       inkscape:label="button-23"
       class="dm2-button" />
    <g
       id="g1343"
       style="stroke-width:0.846535"
       inkscape:label="button-15"
       transform="matrix(1.1812856,0,0,1.1812856,-36.297483,-46.21817)">
      <path
         id="path1337"
         d="m 39.266307,44.965307 c -0.612161,0.0041 -1.218977,0.107781 -1.796753,0.306526 -0.138166,0.04753 -0.202526,0.201247 -0.146328,0.336133 l 1.318876,3.165573 c 0.0562,0.134887 0.177107,0.218365 0.272805,0.197725 0.05768,-0.01255 0.115983,-0.02204 0.174666,-0.02842 0.05871,-0.0062 0.117699,-0.0093 0.176734,-0.0093 0.05817,6.7e-5 0.116301,0.0032 0.174149,0.0093 0.05797,0.0061 0.115584,0.01525 0.172599,0.02739 0.09423,0.02022 0.213561,-0.06406 0.269188,-0.199186 l 1.31009,-3.182288 c 0.05563,-0.135122 -0.0096,-0.287976 -0.148233,-0.334174 -0.572726,-0.190876 -1.172954,-0.288727 -1.777793,-0.289276 z"
         style="stroke-width:0.422839"
         class="dm2-buttons dm2-button" />
      <path
         id="path1339"
         d="m 38.728382,45.674713 h 1.058333 v 1.058333 h -1.058333 z"
         style="fill:none;stroke-width:30.4753" />
      <path
         d="m 39.257549,46.071587 c 0.07276,0 0.132291,0.05953 0.132291,0.132292 0,0.07276 -0.05953,0.132291 -0.132291,0.132291 -0.07276,0 -0.132292,-0.05953 -0.132292,-0.132291 0,-0.07276 0.05953,-0.132292 0.132292,-0.132292 m 0,-0.08819 c -0.121709,0 -0.220486,0.09878 -0.220486,0.220486 0,0.121708 0.09878,0.220486 0.220486,0.220486 0.121708,0 0.220486,-0.09878 0.220486,-0.220486 0,-0.121709 -0.09878,-0.220486 -0.220486,-0.220486 z m -0.440973,0.264583 h 0.08819 c 0.02425,0 0.0441,-0.01984 0.0441,-0.0441 0,-0.02425 -0.01984,-0.0441 -0.0441,-0.0441 h -0.08819 c -0.02425,0 -0.0441,0.01984 -0.0441,0.0441 0,0.02425 0.01984,0.0441 0.0441,0.0441 z m 0.79375,0 h 0.08819 c 0.02425,0 0.0441,-0.01984 0.0441,-0.0441 0,-0.02425 -0.01984,-0.0441 -0.0441,-0.0441 h -0.08819 c -0.02425,0 -0.0441,0.01984 -0.0441,0.0441 0,0.02425 0.01984,0.0441 0.0441,0.0441 z m -0.396875,-0.48507 v 0.08819 c 0,0.02425 0.01984,0.0441 0.0441,0.0441 0.02425,0 0.0441,-0.01984 0.0441,-0.0441 v -0.08819 c 0,-0.02425 -0.01984,-0.0441 -0.0441,-0.0441 -0.02425,0 -0.0441,0.01984 -0.0441,0.0441 z m 0,0.79375 v 0.0882 c 0,0.02425 0.01984,0.0441 0.0441,0.0441 0.02425,0 0.0441,-0.01984 0.0441,-0.0441 v -0.0882 c 0,-0.02425 -0.01984,-0.0441 -0.0441,-0.0441 -0.02425,0 -0.0441,0.01984 -0.0441,0.0441 z m -0.220927,-0.679979 c -0.0172,-0.0172 -0.04542,-0.0172 -0.06218,0 -0.0172,0.0172 -0.0172,0.04542 0,0.06218 l 0.04674,0.04674 c 0.0172,0.0172 0.04542,0.0172 0.06218,0 0.01676,-0.0172 0.0172,-0.04542 0,-0.06218 z m 0.545483,0.545483 c -0.0172,-0.0172 -0.04542,-0.0172 -0.06218,0 -0.0172,0.0172 -0.0172,0.04542 0,0.06218 l 0.04674,0.04674 c 0.0172,0.0172 0.04542,0.0172 0.06218,0 0.0172,-0.0172 0.0172,-0.04542 0,-0.06218 z m 0.04674,-0.483306 c 0.0172,-0.0172 0.0172,-0.04542 0,-0.06218 -0.0172,-0.0172 -0.04542,-0.0172 -0.06218,0 l -0.04674,0.04674 c -0.0172,0.0172 -0.0172,0.04542 0,0.06218 0.0172,0.01676 0.04542,0.0172 0.06218,0 z m -0.545483,0.545483 c 0.0172,-0.0172 0.0172,-0.04542 0,-0.06218 -0.0172,-0.0172 -0.04542,-0.0172 -0.06218,0 l -0.04674,0.04674 c -0.0172,0.0172 -0.0172,0.04542 0,0.06218 0.0172,0.01676 0.04542,0.0172 0.06218,0 z"
         id="path1341"
         style="fill:#ffffff;fill-opacity:0.201299;stroke-width:0.223978;stroke-miterlimit:4;stroke-dasharray:none" />
    </g>
    <g
       transform="matrix(0.83529506,-0.83529506,0.83529506,0.83529506,-64.976364,4.0909883)"
       id="g1351"
       style="display:inline;stroke-width:0.846535"
       inkscape:label="button-8">
      <path
         style="stroke-width:0.422839"
         id="path1345"
         d="m 39.266307,44.965307 c -0.612161,0.0041 -1.218977,0.107781 -1.796753,0.306526 -0.138166,0.04753 -0.202526,0.201247 -0.146328,0.336133 l 1.318876,3.165573 c 0.0562,0.134887 0.177107,0.218365 0.272805,0.197725 0.05768,-0.01255 0.115983,-0.02204 0.174666,-0.02842 0.05871,-0.0062 0.117699,-0.0093 0.176734,-0.0093 0.05817,6.7e-5 0.116301,0.0032 0.174149,0.0093 0.05797,0.0061 0.115584,0.01525 0.172599,0.02739 0.09423,0.02022 0.213561,-0.06406 0.269188,-0.199186 l 1.31009,-3.182288 c 0.05563,-0.135122 -0.0096,-0.287976 -0.148233,-0.334174 -0.572726,-0.190876 -1.172954,-0.288727 -1.777793,-0.289276 z"
         class="dm2-button" />
      <path
         style="stroke-width:30.4753"
         id="path1347"
         d="m 38.728382,45.674713 h 1.058333 v 1.058333 h -1.058333 z"
         fill="none" />
      <path
         style="fill:#ffffff;fill-opacity:0.201299;stroke-width:0.223978;stroke-miterlimit:4;stroke-dasharray:none"
         id="path1349"
         d="m 39.257549,46.071587 c 0.07276,0 0.132291,0.05953 0.132291,0.132292 0,0.07276 -0.05953,0.132291 -0.132291,0.132291 -0.07276,0 -0.132292,-0.05953 -0.132292,-0.132291 0,-0.07276 0.05953,-0.132292 0.132292,-0.132292 m 0,-0.08819 c -0.121709,0 -0.220486,0.09878 -0.220486,0.220486 0,0.121708 0.09878,0.220486 0.220486,0.220486 0.121708,0 0.220486,-0.09878 0.220486,-0.220486 0,-0.121709 -0.09878,-0.220486 -0.220486,-0.220486 z m -0.440973,0.264583 h 0.08819 c 0.02425,0 0.0441,-0.01984 0.0441,-0.0441 0,-0.02425 -0.01984,-0.0441 -0.0441,-0.0441 h -0.08819 c -0.02425,0 -0.0441,0.01984 -0.0441,0.0441 0,0.02425 0.01984,0.0441 0.0441,0.0441 z m 0.79375,0 h 0.08819 c 0.02425,0 0.0441,-0.01984 0.0441,-0.0441 0,-0.02425 -0.01984,-0.0441 -0.0441,-0.0441 h -0.08819 c -0.02425,0 -0.0441,0.01984 -0.0441,0.0441 0,0.02425 0.01984,0.0441 0.0441,0.0441 z m -0.396875,-0.48507 v 0.08819 c 0,0.02425 0.01984,0.0441 0.0441,0.0441 0.02425,0 0.0441,-0.01984 0.0441,-0.0441 v -0.08819 c 0,-0.02425 -0.01984,-0.0441 -0.0441,-0.0441 -0.02425,0 -0.0441,0.01984 -0.0441,0.0441 z m 0,0.79375 v 0.0882 c 0,0.02425 0.01984,0.0441 0.0441,0.0441 0.02425,0 0.0441,-0.01984 0.0441,-0.0441 v -0.0882 c 0,-0.02425 -0.01984,-0.0441 -0.0441,-0.0441 -0.02425,0 -0.0441,0.01984 -0.0441,0.0441 z m -0.220927,-0.679979 c -0.0172,-0.0172 -0.04542,-0.0172 -0.06218,0 -0.0172,0.0172 -0.0172,0.04542 0,0.06218 l 0.04674,0.04674 c 0.0172,0.0172 0.04542,0.0172 0.06218,0 0.01676,-0.0172 0.0172,-0.04542 0,-0.06218 z m 0.545483,0.545483 c -0.0172,-0.0172 -0.04542,-0.0172 -0.06218,0 -0.0172,0.0172 -0.0172,0.04542 0,0.06218 l 0.04674,0.04674 c 0.0172,0.0172 0.04542,0.0172 0.06218,0 0.0172,-0.0172 0.0172,-0.04542 0,-0.06218 z m 0.04674,-0.483306 c 0.0172,-0.0172 0.0172,-0.04542 0,-0.06218 -0.0172,-0.0172 -0.04542,-0.0172 -0.06218,0 l -0.04674,0.04674 c -0.0172,0.0172 -0.0172,0.04542 0,0.06218 0.0172,0.01676 0.04542,0.0172 0.06218,0 z m -0.545483,0.545483 c 0.0172,-0.0172 0.0172,-0.04542 0,-0.06218 -0.0172,-0.0172 -0.04542,-0.0172 -0.06218,0 l -0.04674,0.04674 c -0.0172,0.0172 -0.0172,0.04542 0,0.06218 0.0172,0.01676 0.04542,0.0172 0.06218,0 z" />
    </g>
    <g
       transform="matrix(0,-1.1812856,1.1812856,0,-49.681449,59.943967)"
       id="g1359"
       style="display:inline;stroke-width:0.846535"
       inkscape:label="button-9">
      <path
         style="stroke-width:0.422839"
         id="path1353"
         d="m 39.266307,44.965307 c -0.612161,0.0041 -1.218977,0.107781 -1.796753,0.306526 -0.138166,0.04753 -0.202526,0.201247 -0.146328,0.336133 l 1.318876,3.165573 c 0.0562,0.134887 0.177107,0.218365 0.272805,0.197725 0.05768,-0.01255 0.115983,-0.02204 0.174666,-0.02842 0.05871,-0.0062 0.117699,-0.0093 0.176734,-0.0093 0.05817,6.7e-5 0.116301,0.0032 0.174149,0.0093 0.05797,0.0061 0.115584,0.01525 0.172599,0.02739 0.09423,0.02022 0.213561,-0.06406 0.269188,-0.199186 l 1.31009,-3.182288 c 0.05563,-0.135122 -0.0096,-0.287976 -0.148233,-0.334174 -0.572726,-0.190876 -1.172954,-0.288727 -1.777793,-0.289276 z"
         class="dm2-button" />
      <path
         style="stroke-width:30.4753"
         id="path1355"
         d="m 38.728382,45.674713 h 1.058333 v 1.058333 h -1.058333 z"
         fill="none" />
      <path
         style="fill:#ffffff;fill-opacity:0.201299;stroke-width:0.223978;stroke-miterlimit:4;stroke-dasharray:none"
         id="path1357"
         d="m 39.257549,46.071587 c 0.07276,0 0.132291,0.05953 0.132291,0.132292 0,0.07276 -0.05953,0.132291 -0.132291,0.132291 -0.07276,0 -0.132292,-0.05953 -0.132292,-0.132291 0,-0.07276 0.05953,-0.132292 0.132292,-0.132292 m 0,-0.08819 c -0.121709,0 -0.220486,0.09878 -0.220486,0.220486 0,0.121708 0.09878,0.220486 0.220486,0.220486 0.121708,0 0.220486,-0.09878 0.220486,-0.220486 0,-0.121709 -0.09878,-0.220486 -0.220486,-0.220486 z m -0.440973,0.264583 h 0.08819 c 0.02425,0 0.0441,-0.01984 0.0441,-0.0441 0,-0.02425 -0.01984,-0.0441 -0.0441,-0.0441 h -0.08819 c -0.02425,0 -0.0441,0.01984 -0.0441,0.0441 0,0.02425 0.01984,0.0441 0.0441,0.0441 z m 0.79375,0 h 0.08819 c 0.02425,0 0.0441,-0.01984 0.0441,-0.0441 0,-0.02425 -0.01984,-0.0441 -0.0441,-0.0441 h -0.08819 c -0.02425,0 -0.0441,0.01984 -0.0441,0.0441 0,0.02425 0.01984,0.0441 0.0441,0.0441 z m -0.396875,-0.48507 v 0.08819 c 0,0.02425 0.01984,0.0441 0.0441,0.0441 0.02425,0 0.0441,-0.01984 0.0441,-0.0441 v -0.08819 c 0,-0.02425 -0.01984,-0.0441 -0.0441,-0.0441 -0.02425,0 -0.0441,0.01984 -0.0441,0.0441 z m 0,0.79375 v 0.0882 c 0,0.02425 0.01984,0.0441 0.0441,0.0441 0.02425,0 0.0441,-0.01984 0.0441,-0.0441 v -0.0882 c 0,-0.02425 -0.01984,-0.0441 -0.0441,-0.0441 -0.02425,0 -0.0441,0.01984 -0.0441,0.0441 z m -0.220927,-0.679979 c -0.0172,-0.0172 -0.04542,-0.0172 -0.06218,0 -0.0172,0.0172 -0.0172,0.04542 0,0.06218 l 0.04674,0.04674 c 0.0172,0.0172 0.04542,0.0172 0.06218,0 0.01676,-0.0172 0.0172,-0.04542 0,-0.06218 z m 0.545483,0.545483 c -0.0172,-0.0172 -0.04542,-0.0172 -0.06218,0 -0.0172,0.0172 -0.0172,0.04542 0,0.06218 l 0.04674,0.04674 c 0.0172,0.0172 0.04542,0.0172 0.06218,0 0.0172,-0.0172 0.0172,-0.04542 0,-0.06218 z m 0.04674,-0.483306 c 0.0172,-0.0172 0.0172,-0.04542 0,-0.06218 -0.0172,-0.0172 -0.04542,-0.0172 -0.06218,0 l -0.04674,0.04674 c -0.0172,0.0172 -0.0172,0.04542 0,0.06218 0.0172,0.01676 0.04542,0.0172 0.06218,0 z m -0.545483,0.545483 c 0.0172,-0.0172 0.0172,-0.04542 0,-0.06218 -0.0172,-0.0172 -0.04542,-0.0172 -0.06218,0 l -0.04674,0.04674 c -0.0172,0.0172 -0.0172,0.04542 0,0.06218 0.0172,0.01676 0.04542,0.0172 0.06218,0 z" />
    </g>
    <g
       transform="matrix(-0.83529506,-0.83529506,0.83529506,-0.83529506,0.6277095,88.622848)"
       id="g1367"
       style="display:inline;stroke-width:0.846535"
       inkscape:label="button-10">
      <path
         style="stroke-width:0.422839"
         id="path1361"
         d="m 39.266307,44.965307 c -0.612161,0.0041 -1.218977,0.107781 -1.796753,0.306526 -0.138166,0.04753 -0.202526,0.201247 -0.146328,0.336133 l 1.318876,3.165573 c 0.0562,0.134887 0.177107,0.218365 0.272805,0.197725 0.05768,-0.01255 0.115983,-0.02204 0.174666,-0.02842 0.05871,-0.0062 0.117699,-0.0093 0.176734,-0.0093 0.05817,6.7e-5 0.116301,0.0032 0.174149,0.0093 0.05797,0.0061 0.115584,0.01525 0.172599,0.02739 0.09423,0.02022 0.213561,-0.06406 0.269188,-0.199186 l 1.31009,-3.182288 c 0.05563,-0.135122 -0.0096,-0.287976 -0.148233,-0.334174 -0.572726,-0.190876 -1.172954,-0.288727 -1.777793,-0.289276 z"
         class="dm2-button" />
      <path
         style="stroke-width:30.4753"
         id="path1363"
         d="m 38.728382,45.674713 h 1.058333 v 1.058333 h -1.058333 z"
         fill="none" />
      <path
         style="fill:#ffffff;fill-opacity:0.201299;stroke-width:0.223978;stroke-miterlimit:4;stroke-dasharray:none"
         id="path1365"
         d="m 39.257549,46.071587 c 0.07276,0 0.132291,0.05953 0.132291,0.132292 0,0.07276 -0.05953,0.132291 -0.132291,0.132291 -0.07276,0 -0.132292,-0.05953 -0.132292,-0.132291 0,-0.07276 0.05953,-0.132292 0.132292,-0.132292 m 0,-0.08819 c -0.121709,0 -0.220486,0.09878 -0.220486,0.220486 0,0.121708 0.09878,0.220486 0.220486,0.220486 0.121708,0 0.220486,-0.09878 0.220486,-0.220486 0,-0.121709 -0.09878,-0.220486 -0.220486,-0.220486 z m -0.440973,0.264583 h 0.08819 c 0.02425,0 0.0441,-0.01984 0.0441,-0.0441 0,-0.02425 -0.01984,-0.0441 -0.0441,-0.0441 h -0.08819 c -0.02425,0 -0.0441,0.01984 -0.0441,0.0441 0,0.02425 0.01984,0.0441 0.0441,0.0441 z m 0.79375,0 h 0.08819 c 0.02425,0 0.0441,-0.01984 0.0441,-0.0441 0,-0.02425 -0.01984,-0.0441 -0.0441,-0.0441 h -0.08819 c -0.02425,0 -0.0441,0.01984 -0.0441,0.0441 0,0.02425 0.01984,0.0441 0.0441,0.0441 z m -0.396875,-0.48507 v 0.08819 c 0,0.02425 0.01984,0.0441 0.0441,0.0441 0.02425,0 0.0441,-0.01984 0.0441,-0.0441 v -0.08819 c 0,-0.02425 -0.01984,-0.0441 -0.0441,-0.0441 -0.02425,0 -0.0441,0.01984 -0.0441,0.0441 z m 0,0.79375 v 0.0882 c 0,0.02425 0.01984,0.0441 0.0441,0.0441 0.02425,0 0.0441,-0.01984 0.0441,-0.0441 v -0.0882 c 0,-0.02425 -0.01984,-0.0441 -0.0441,-0.0441 -0.02425,0 -0.0441,0.01984 -0.0441,0.0441 z m -0.220927,-0.679979 c -0.0172,-0.0172 -0.04542,-0.0172 -0.06218,0 -0.0172,0.0172 -0.0172,0.04542 0,0.06218 l 0.04674,0.04674 c 0.0172,0.0172 0.04542,0.0172 0.06218,0 0.01676,-0.0172 0.0172,-0.04542 0,-0.06218 z m 0.545483,0.545483 c -0.0172,-0.0172 -0.04542,-0.0172 -0.06218,0 -0.0172,0.0172 -0.0172,0.04542 0,0.06218 l 0.04674,0.04674 c 0.0172,0.0172 0.04542,0.0172 0.06218,0 0.0172,-0.0172 0.0172,-0.04542 0,-0.06218 z m 0.04674,-0.483306 c 0.0172,-0.0172 0.0172,-0.04542 0,-0.06218 -0.0172,-0.0172 -0.04542,-0.0172 -0.06218,0 l -0.04674,0.04674 c -0.0172,0.0172 -0.0172,0.04542 0,0.06218 0.0172,0.01676 0.04542,0.0172 0.06218,0 z m -0.545483,0.545483 c 0.0172,-0.0172 0.0172,-0.04542 0,-0.06218 -0.0172,-0.0172 -0.04542,-0.0172 -0.06218,0 l -0.04674,0.04674 c -0.0172,0.0172 -0.0172,0.04542 0,0.06218 0.0172,0.01676 0.04542,0.0172 0.06218,0 z" />
    </g>
    <g
       transform="matrix(-1.1812856,0,0,-1.1812856,56.480688,73.327933)"
       id="g1375"
       style="display:inline;stroke-width:0.846535"
       inkscape:label="button-11">
      <path
         style="stroke-width:0.422839"
         id="path1369"
         d="m 39.266307,44.965307 c -0.612161,0.0041 -1.218977,0.107781 -1.796753,0.306526 -0.138166,0.04753 -0.202526,0.201247 -0.146328,0.336133 l 1.318876,3.165573 c 0.0562,0.134887 0.177107,0.218365 0.272805,0.197725 0.05768,-0.01255 0.115983,-0.02204 0.174666,-0.02842 0.05871,-0.0062 0.117699,-0.0093 0.176734,-0.0093 0.05817,6.7e-5 0.116301,0.0032 0.174149,0.0093 0.05797,0.0061 0.115584,0.01525 0.172599,0.02739 0.09423,0.02022 0.213561,-0.06406 0.269188,-0.199186 l 1.31009,-3.182288 c 0.05563,-0.135122 -0.0096,-0.287976 -0.148233,-0.334174 -0.572726,-0.190876 -1.172954,-0.288727 -1.777793,-0.289276 z"
         class="dm2-button" />
      <path
         style="stroke-width:30.4753"
         id="path1371"
         d="m 38.728382,45.674713 h 1.058333 v 1.058333 h -1.058333 z"
         fill="none" />
      <path
         style="fill:#ffffff;fill-opacity:0.201299;stroke-width:0.223978;stroke-miterlimit:4;stroke-dasharray:none"
         id="path1373"
         d="m 39.257549,46.071587 c 0.07276,0 0.132291,0.05953 0.132291,0.132292 0,0.07276 -0.05953,0.132291 -0.132291,0.132291 -0.07276,0 -0.132292,-0.05953 -0.132292,-0.132291 0,-0.07276 0.05953,-0.132292 0.132292,-0.132292 m 0,-0.08819 c -0.121709,0 -0.220486,0.09878 -0.220486,0.220486 0,0.121708 0.09878,0.220486 0.220486,0.220486 0.121708,0 0.220486,-0.09878 0.220486,-0.220486 0,-0.121709 -0.09878,-0.220486 -0.220486,-0.220486 z m -0.440973,0.264583 h 0.08819 c 0.02425,0 0.0441,-0.01984 0.0441,-0.0441 0,-0.02425 -0.01984,-0.0441 -0.0441,-0.0441 h -0.08819 c -0.02425,0 -0.0441,0.01984 -0.0441,0.0441 0,0.02425 0.01984,0.0441 0.0441,0.0441 z m 0.79375,0 h 0.08819 c 0.02425,0 0.0441,-0.01984 0.0441,-0.0441 0,-0.02425 -0.01984,-0.0441 -0.0441,-0.0441 h -0.08819 c -0.02425,0 -0.0441,0.01984 -0.0441,0.0441 0,0.02425 0.01984,0.0441 0.0441,0.0441 z m -0.396875,-0.48507 v 0.08819 c 0,0.02425 0.01984,0.0441 0.0441,0.0441 0.02425,0 0.0441,-0.01984 0.0441,-0.0441 v -0.08819 c 0,-0.02425 -0.01984,-0.0441 -0.0441,-0.0441 -0.02425,0 -0.0441,0.01984 -0.0441,0.0441 z m 0,0.79375 v 0.0882 c 0,0.02425 0.01984,0.0441 0.0441,0.0441 0.02425,0 0.0441,-0.01984 0.0441,-0.0441 v -0.0882 c 0,-0.02425 -0.01984,-0.0441 -0.0441,-0.0441 -0.02425,0 -0.0441,0.01984 -0.0441,0.0441 z m -0.220927,-0.679979 c -0.0172,-0.0172 -0.04542,-0.0172 -0.06218,0 -0.0172,0.0172 -0.0172,0.04542 0,0.06218 l 0.04674,0.04674 c 0.0172,0.0172 0.04542,0.0172 0.06218,0 0.01676,-0.0172 0.0172,-0.04542 0,-0.06218 z m 0.545483,0.545483 c -0.0172,-0.0172 -0.04542,-0.0172 -0.06218,0 -0.0172,0.0172 -0.0172,0.04542 0,0.06218 l 0.04674,0.04674 c 0.0172,0.0172 0.04542,0.0172 0.06218,0 0.0172,-0.0172 0.0172,-0.04542 0,-0.06218 z m 0.04674,-0.483306 c 0.0172,-0.0172 0.0172,-0.04542 0,-0.06218 -0.0172,-0.0172 -0.04542,-0.0172 -0.06218,0 l -0.04674,0.04674 c -0.0172,0.0172 -0.0172,0.04542 0,0.06218 0.0172,0.01676 0.04542,0.0172 0.06218,0 z m -0.545483,0.545483 c 0.0172,-0.0172 0.0172,-0.04542 0,-0.06218 -0.0172,-0.0172 -0.04542,-0.0172 -0.06218,0 l -0.04674,0.04674 c -0.0172,0.0172 -0.0172,0.04542 0,0.06218 0.0172,0.01676 0.04542,0.0172 0.06218,0 z" />
    </g>
    <g
       transform="matrix(-0.83529506,0.83529506,-0.83529506,-0.83529506,85.159569,23.018774)"
       id="g1383"
       style="display:inline;stroke-width:0.846535"
       inkscape:label="button-12">
      <path
         style="stroke-width:0.422839"
         id="path1377"
         d="m 39.266307,44.965307 c -0.612161,0.0041 -1.218977,0.107781 -1.796753,0.306526 -0.138166,0.04753 -0.202526,0.201247 -0.146328,0.336133 l 1.318876,3.165573 c 0.0562,0.134887 0.177107,0.218365 0.272805,0.197725 0.05768,-0.01255 0.115983,-0.02204 0.174666,-0.02842 0.05871,-0.0062 0.117699,-0.0093 0.176734,-0.0093 0.05817,6.7e-5 0.116301,0.0032 0.174149,0.0093 0.05797,0.0061 0.115584,0.01525 0.172599,0.02739 0.09423,0.02022 0.213561,-0.06406 0.269188,-0.199186 l 1.31009,-3.182288 c 0.05563,-0.135122 -0.0096,-0.287976 -0.148233,-0.334174 -0.572726,-0.190876 -1.172954,-0.288727 -1.777793,-0.289276 z"
         class="dm2-button" />
      <path
         style="stroke-width:30.4753"
         id="path1379"
         d="m 38.728382,45.674713 h 1.058333 v 1.058333 h -1.058333 z"
         fill="none" />
      <path
         style="fill:#ffffff;fill-opacity:0.201299;stroke-width:0.223978;stroke-miterlimit:4;stroke-dasharray:none"
         id="path1381"
         d="m 39.257549,46.071587 c 0.07276,0 0.132291,0.05953 0.132291,0.132292 0,0.07276 -0.05953,0.132291 -0.132291,0.132291 -0.07276,0 -0.132292,-0.05953 -0.132292,-0.132291 0,-0.07276 0.05953,-0.132292 0.132292,-0.132292 m 0,-0.08819 c -0.121709,0 -0.220486,0.09878 -0.220486,0.220486 0,0.121708 0.09878,0.220486 0.220486,0.220486 0.121708,0 0.220486,-0.09878 0.220486,-0.220486 0,-0.121709 -0.09878,-0.220486 -0.220486,-0.220486 z m -0.440973,0.264583 h 0.08819 c 0.02425,0 0.0441,-0.01984 0.0441,-0.0441 0,-0.02425 -0.01984,-0.0441 -0.0441,-0.0441 h -0.08819 c -0.02425,0 -0.0441,0.01984 -0.0441,0.0441 0,0.02425 0.01984,0.0441 0.0441,0.0441 z m 0.79375,0 h 0.08819 c 0.02425,0 0.0441,-0.01984 0.0441,-0.0441 0,-0.02425 -0.01984,-0.0441 -0.0441,-0.0441 h -0.08819 c -0.02425,0 -0.0441,0.01984 -0.0441,0.0441 0,0.02425 0.01984,0.0441 0.0441,0.0441 z m -0.396875,-0.48507 v 0.08819 c 0,0.02425 0.01984,0.0441 0.0441,0.0441 0.02425,0 0.0441,-0.01984 0.0441,-0.0441 v -0.08819 c 0,-0.02425 -0.01984,-0.0441 -0.0441,-0.0441 -0.02425,0 -0.0441,0.01984 -0.0441,0.0441 z m 0,0.79375 v 0.0882 c 0,0.02425 0.01984,0.0441 0.0441,0.0441 0.02425,0 0.0441,-0.01984 0.0441,-0.0441 v -0.0882 c 0,-0.02425 -0.01984,-0.0441 -0.0441,-0.0441 -0.02425,0 -0.0441,0.01984 -0.0441,0.0441 z m -0.220927,-0.679979 c -0.0172,-0.0172 -0.04542,-0.0172 -0.06218,0 -0.0172,0.0172 -0.0172,0.04542 0,0.06218 l 0.04674,0.04674 c 0.0172,0.0172 0.04542,0.0172 0.06218,0 0.01676,-0.0172 0.0172,-0.04542 0,-0.06218 z m 0.545483,0.545483 c -0.0172,-0.0172 -0.04542,-0.0172 -0.06218,0 -0.0172,0.0172 -0.0172,0.04542 0,0.06218 l 0.04674,0.04674 c 0.0172,0.0172 0.04542,0.0172 0.06218,0 0.0172,-0.0172 0.0172,-0.04542 0,-0.06218 z m 0.04674,-0.483306 c 0.0172,-0.0172 0.0172,-0.04542 0,-0.06218 -0.0172,-0.0172 -0.04542,-0.0172 -0.06218,0 l -0.04674,0.04674 c -0.0172,0.0172 -0.0172,0.04542 0,0.06218 0.0172,0.01676 0.04542,0.0172 0.06218,0 z m -0.545483,0.545483 c 0.0172,-0.0172 0.0172,-0.04542 0,-0.06218 -0.0172,-0.0172 -0.04542,-0.0172 -0.06218,0 l -0.04674,0.04674 c -0.0172,0.0172 -0.0172,0.04542 0,0.06218 0.0172,0.01676 0.04542,0.0172 0.06218,0 z" />
    </g>
    <g
       transform="matrix(0,1.1812856,-1.1812856,0,69.864654,-32.834204)"
       id="g1391"
       style="display:inline;stroke-width:0.846535"
       inkscape:label="button-13">
      <path
         style="stroke-width:0.422839"
         id="path1385"
         d="m 39.266307,44.965307 c -0.612161,0.0041 -1.218977,0.107781 -1.796753,0.306526 -0.138166,0.04753 -0.202526,0.201247 -0.146328,0.336133 l 1.318876,3.165573 c 0.0562,0.134887 0.177107,0.218365 0.272805,0.197725 0.05768,-0.01255 0.115983,-0.02204 0.174666,-0.02842 0.05871,-0.0062 0.117699,-0.0093 0.176734,-0.0093 0.05817,6.7e-5 0.116301,0.0032 0.174149,0.0093 0.05797,0.0061 0.115584,0.01525 0.172599,0.02739 0.09423,0.02022 0.213561,-0.06406 0.269188,-0.199186 l 1.31009,-3.182288 c 0.05563,-0.135122 -0.0096,-0.287976 -0.148233,-0.334174 -0.572726,-0.190876 -1.172954,-0.288727 -1.777793,-0.289276 z"
         class="dm2-button" />
      <path
         style="stroke-width:30.4753"
         id="path1387"
         d="m 38.728382,45.674713 h 1.058333 v 1.058333 h -1.058333 z"
         fill="none" />
      <path
         style="fill:#ffffff;fill-opacity:0.201299;stroke-width:0.223978;stroke-miterlimit:4;stroke-dasharray:none"
         id="path1389"
         d="m 39.257549,46.071587 c 0.07276,0 0.132291,0.05953 0.132291,0.132292 0,0.07276 -0.05953,0.132291 -0.132291,0.132291 -0.07276,0 -0.132292,-0.05953 -0.132292,-0.132291 0,-0.07276 0.05953,-0.132292 0.132292,-0.132292 m 0,-0.08819 c -0.121709,0 -0.220486,0.09878 -0.220486,0.220486 0,0.121708 0.09878,0.220486 0.220486,0.220486 0.121708,0 0.220486,-0.09878 0.220486,-0.220486 0,-0.121709 -0.09878,-0.220486 -0.220486,-0.220486 z m -0.440973,0.264583 h 0.08819 c 0.02425,0 0.0441,-0.01984 0.0441,-0.0441 0,-0.02425 -0.01984,-0.0441 -0.0441,-0.0441 h -0.08819 c -0.02425,0 -0.0441,0.01984 -0.0441,0.0441 0,0.02425 0.01984,0.0441 0.0441,0.0441 z m 0.79375,0 h 0.08819 c 0.02425,0 0.0441,-0.01984 0.0441,-0.0441 0,-0.02425 -0.01984,-0.0441 -0.0441,-0.0441 h -0.08819 c -0.02425,0 -0.0441,0.01984 -0.0441,0.0441 0,0.02425 0.01984,0.0441 0.0441,0.0441 z m -0.396875,-0.48507 v 0.08819 c 0,0.02425 0.01984,0.0441 0.0441,0.0441 0.02425,0 0.0441,-0.01984 0.0441,-0.0441 v -0.08819 c 0,-0.02425 -0.01984,-0.0441 -0.0441,-0.0441 -0.02425,0 -0.0441,0.01984 -0.0441,0.0441 z m 0,0.79375 v 0.0882 c 0,0.02425 0.01984,0.0441 0.0441,0.0441 0.02425,0 0.0441,-0.01984 0.0441,-0.0441 v -0.0882 c 0,-0.02425 -0.01984,-0.0441 -0.0441,-0.0441 -0.02425,0 -0.0441,0.01984 -0.0441,0.0441 z m -0.220927,-0.679979 c -0.0172,-0.0172 -0.04542,-0.0172 -0.06218,0 -0.0172,0.0172 -0.0172,0.04542 0,0.06218 l 0.04674,0.04674 c 0.0172,0.0172 0.04542,0.0172 0.06218,0 0.01676,-0.0172 0.0172,-0.04542 0,-0.06218 z m 0.545483,0.545483 c -0.0172,-0.0172 -0.04542,-0.0172 -0.06218,0 -0.0172,0.0172 -0.0172,0.04542 0,0.06218 l 0.04674,0.04674 c 0.0172,0.0172 0.04542,0.0172 0.06218,0 0.0172,-0.0172 0.0172,-0.04542 0,-0.06218 z m 0.04674,-0.483306 c 0.0172,-0.0172 0.0172,-0.04542 0,-0.06218 -0.0172,-0.0172 -0.04542,-0.0172 -0.06218,0 l -0.04674,0.04674 c -0.0172,0.0172 -0.0172,0.04542 0,0.06218 0.0172,0.01676 0.04542,0.0172 0.06218,0 z m -0.545483,0.545483 c 0.0172,-0.0172 0.0172,-0.04542 0,-0.06218 -0.0172,-0.0172 -0.04542,-0.0172 -0.06218,0 l -0.04674,0.04674 c -0.0172,0.0172 -0.0172,0.04542 0,0.06218 0.0172,0.01676 0.04542,0.0172 0.06218,0 z" />
    </g>
    <g
       transform="matrix(0.83529506,0.83529506,-0.83529506,0.83529506,19.555496,-61.513086)"
       id="g1399"
       style="display:inline;stroke-width:0.846535"
       inkscape:label="button-14">
      <path
         style="stroke-width:0.422839"
         id="path1393"
         d="m 39.266307,44.965307 c -0.612161,0.0041 -1.218977,0.107781 -1.796753,0.306526 -0.138166,0.04753 -0.202526,0.201247 -0.146328,0.336133 l 1.318876,3.165573 c 0.0562,0.134887 0.177107,0.218365 0.272805,0.197725 0.05768,-0.01255 0.115983,-0.02204 0.174666,-0.02842 0.05871,-0.0062 0.117699,-0.0093 0.176734,-0.0093 0.05817,6.7e-5 0.116301,0.0032 0.174149,0.0093 0.05797,0.0061 0.115584,0.01525 0.172599,0.02739 0.09423,0.02022 0.213561,-0.06406 0.269188,-0.199186 l 1.31009,-3.182288 c 0.05563,-0.135122 -0.0096,-0.287976 -0.148233,-0.334174 -0.572726,-0.190876 -1.172954,-0.288727 -1.777793,-0.289276 z"
         class="dm2-button" />
      <path
         style="stroke-width:30.4753"
         id="path1395"
         d="m 38.728382,45.674713 h 1.058333 v 1.058333 h -1.058333 z"
         fill="none" />
      <path
         style="fill:#ffffff;fill-opacity:0.201299;stroke-width:0.223978;stroke-miterlimit:4;stroke-dasharray:none"
         id="path1397"
         d="m 39.257549,46.071587 c 0.07276,0 0.132291,0.05953 0.132291,0.132292 0,0.07276 -0.05953,0.132291 -0.132291,0.132291 -0.07276,0 -0.132292,-0.05953 -0.132292,-0.132291 0,-0.07276 0.05953,-0.132292 0.132292,-0.132292 m 0,-0.08819 c -0.121709,0 -0.220486,0.09878 -0.220486,0.220486 0,0.121708 0.09878,0.220486 0.220486,0.220486 0.121708,0 0.220486,-0.09878 0.220486,-0.220486 0,-0.121709 -0.09878,-0.220486 -0.220486,-0.220486 z m -0.440973,0.264583 h 0.08819 c 0.02425,0 0.0441,-0.01984 0.0441,-0.0441 0,-0.02425 -0.01984,-0.0441 -0.0441,-0.0441 h -0.08819 c -0.02425,0 -0.0441,0.01984 -0.0441,0.0441 0,0.02425 0.01984,0.0441 0.0441,0.0441 z m 0.79375,0 h 0.08819 c 0.02425,0 0.0441,-0.01984 0.0441,-0.0441 0,-0.02425 -0.01984,-0.0441 -0.0441,-0.0441 h -0.08819 c -0.02425,0 -0.0441,0.01984 -0.0441,0.0441 0,0.02425 0.01984,0.0441 0.0441,0.0441 z m -0.396875,-0.48507 v 0.08819 c 0,0.02425 0.01984,0.0441 0.0441,0.0441 0.02425,0 0.0441,-0.01984 0.0441,-0.0441 v -0.08819 c 0,-0.02425 -0.01984,-0.0441 -0.0441,-0.0441 -0.02425,0 -0.0441,0.01984 -0.0441,0.0441 z m 0,0.79375 v 0.0882 c 0,0.02425 0.01984,0.0441 0.0441,0.0441 0.02425,0 0.0441,-0.01984 0.0441,-0.0441 v -0.0882 c 0,-0.02425 -0.01984,-0.0441 -0.0441,-0.0441 -0.02425,0 -0.0441,0.01984 -0.0441,0.0441 z m -0.220927,-0.679979 c -0.0172,-0.0172 -0.04542,-0.0172 -0.06218,0 -0.0172,0.0172 -0.0172,0.04542 0,0.06218 l 0.04674,0.04674 c 0.0172,0.0172 0.04542,0.0172 0.06218,0 0.01676,-0.0172 0.0172,-0.04542 0,-0.06218 z m 0.545483,0.545483 c -0.0172,-0.0172 -0.04542,-0.0172 -0.06218,0 -0.0172,0.0172 -0.0172,0.04542 0,0.06218 l 0.04674,0.04674 c 0.0172,0.0172 0.04542,0.0172 0.06218,0 0.0172,-0.0172 0.0172,-0.04542 0,-0.06218 z m 0.04674,-0.483306 c 0.0172,-0.0172 0.0172,-0.04542 0,-0.06218 -0.0172,-0.0172 -0.04542,-0.0172 -0.06218,0 l -0.04674,0.04674 c -0.0172,0.0172 -0.0172,0.04542 0,0.06218 0.0172,0.01676 0.04542,0.0172 0.06218,0 z m -0.545483,0.545483 c 0.0172,-0.0172 0.0172,-0.04542 0,-0.06218 -0.0172,-0.0172 -0.04542,-0.0172 -0.06218,0 l -0.04674,0.04674 c -0.0172,0.0172 -0.0172,0.04542 0,0.06218 0.0172,0.01676 0.04542,0.0172 0.06218,0 z" />
    </g>
  </g>
  <rect
     id="rect2104"
     width="2.2965519"
     height="9.883009"
     x="21.14287"
     y="10.668911"
     rx="0.26458332"
     ry="0.26458332"
     class="dm2-button"
     style="stroke-width:0.999999"
     inkscape:label="button-25" />
  <rect
     id="rect2445"
     width="2.9104166"
     height="1.8686193"
     x="31.0263"
     y="1.4469403"
     rx="0.26458332"
     ry="0.26458329"
     class="dm2-button"
     inkscape:label="button-16" />
  <rect
     id="rect2445-1"
     width="2.9104166"
     height="1.8686193"
     x="39.22839"
     y="1.4469403"
     rx="0.26458332"
     ry="0.26458329"
     class="dm2-button"
     inkscape:label="button-18" />
  <rect
     id="rect2558"
     width="4.6963596"
     height="1.8686193"
     x="34.234375"
     y="1.4469403"
     rx="0.26458332"
     ry="0.26458329"
     class="dm2-button"
     inkscape:label="button-17" />
  <circle
     style="fill:none;fill-opacity:1;stroke:#818181;stroke-width:0.26458333;stroke-miterlimit:4;stroke-dasharray:none;stroke-opacity:0.50196081"
     id="path2872"
     cx="22.291145"
     cy="6.9783854"
     r="2.5796876"
     inkscape:label="joystick-outer" />
  <circle
     id="path3042"
     cx="22.291145"
     cy="6.9783854"
     r="1.5213542"
     inkscape:label="joystick-inner"
     class="dm2-button" />
  <rect
     id="rect3180"
     width="2.3812499"
     height="1.8686193"
     x="23.779432"
     y="1.4469403"
     rx="0.26458332"
     ry="0.26458329"
     class="dm2-button"
     inkscape:label="button-19"
     style="stroke-width:0.999999" />
  <rect
     id="rect3178"
     width="2.3812499"
     height="1.8686193"
     x="21.100521"
     y="1.4469403"
     rx="0.26458332"
     ry="0.26458329"
     class="dm2-button"
     inkscape:label="button-20"
     style="stroke-width:0.999999" />
  <rect
     id="rect3182"
     width="2.3812499"
     height="1.8686193"
     x="18.42161"
     y="1.4469403"
     rx="0.26458332"
     ry="0.26458329"
     class="dm2-button"
     inkscape:label="button-21"
     style="stroke-width:0.999999" />
  <rect
     id="rect3305"
     width="2.4473958"
     height="2.0505207"
     x="2.8773437"
     y="22.787237"
     rx="0.26458332"
     ry="0.26458332"
     class="dm2-button"
     style="stroke-width:0.999991"
     inkscape:label="button-31" />
  <rect
     id="rect3387"
     width="2.4473958"
     height="2.0505207"
     x="5.8318567"
     y="22.787237"
     rx="0.26458332"
     ry="0.26458332"
     class="dm2-button"
     style="stroke-width:0.999991"
     inkscape:label="button-30" />
  <rect
     id="rect3389"
     width="2.4473958"
     height="2.0505207"
     x="8.7863703"
     y="22.787237"
     rx="0.26458332"
     ry="0.26458332"
     class="dm2-button"
     style="stroke-width:0.999991"
     inkscape:label="button-29" />
  <rect
     id="rect3391"
     width="2.4473958"
     height="2.0505207"
     x="11.740885"
     y="22.787237"
     rx="0.26458332"
     ry="0.26458332"
     class="dm2-button"
     style="stroke-width:0.999991"
     inkscape:label="button-28" />
  <path
     id="circle3496"
     inkscape:label="button-27"
     class="dm2-button"
     style="stroke-width:0.999999"
     inkscape:path-effect="#path-effect3501"
     sodipodi:type="arc"
     sodipodi:cx="16.830206"
     sodipodi:cy="23.812498"
     sodipodi:rx="1.0252604"
     sodipodi:ry="1.0252604"
     d="m 17.855466,23.812498 a 1.0252604,1.0252604 0 0 1 -1.02526,1.025261 1.0252604,1.0252604 0 0 1 -1.025261,-1.025261 1.0252604,1.0252604 0 0 1 1.025261,-1.02526 1.0252604,1.0252604 0 0 1 1.02526,1.02526 z"
     transform="translate(-0.39687498)" />
  <path
     id="mirror-path-effect3501"
     d="m 17.855466,23.812498 a 1.0252604,1.0252604 0 0 1 -1.02526,1.025261 1.0252604,1.0252604 0 0 1 -1.025261,-1.025261 1.0252604,1.0252604 0 0 1 1.025261,-1.02526 1.0252604,1.0252604 0 0 1 1.02526,1.02526 z"
     transform="matrix(-1,0,0,1,44.979166,0)"
     class="dm2-button"
     inkscape:label="button-26" />
  <rect
     style="fill:#818181;fill-opacity:0.501961;stroke:none;stroke-width:0.264583;stroke-miterlimit:4;stroke-dasharray:none;stroke-opacity:1"
     id="rect10082"
     width="7.6807337"
     x="18.450779"
     y="23.653748"
     rx="0.26458332"
     ry="9.2651376e-08"
     height="0.3175" />
  <rect
     id="rect11396"
     width="2.2965832"
     height="1.3229165"
     x="21.142855"
     y="23.151039"
     rx="0.26458332"
     ry="0.26458332"
     class="dm2-button"
     style="stroke-width:1"
     inkscape:label="slider-handle" />
</svg>
