<?xml version="1.0" encoding="UTF-8" standalone="no"?>
<!-- Created with Inkscape (http://www.inkscape.org/) -->

<svg
   width="168.5"
   height="95.999992"
   viewBox="0 0 44.582293 25.399997"
   version="1.1"
   id="svg5"
   inkscape:version="1.1.1 (3bf5ae0d25, 2021-09-20)"
   sodipodi:docname="dm2_diagram.svg"
   xmlns:inkscape="http://www.inkscape.org/namespaces/inkscape"
   xmlns:sodipodi="http://sodipodi.sourceforge.net/DTD/sodipodi-0.dtd"
   xmlns="http://www.w3.org/2000/svg"
   xmlns:svg="http://www.w3.org/2000/svg">
  <sodipodi:namedview
     id="namedview7"
     pagecolor="#505050"
     bordercolor="#ffffff"
     borderopacity="1"
     inkscape:pageshadow="0"
     inkscape:pageopacity="0"
     inkscape:pagecheckerboard="1"
     inkscape:document-units="px"
     showgrid="false"
     units="px"
     fit-margin-top="0"
     fit-margin-left="0"
     fit-margin-right="0"
     fit-margin-bottom="0"
     inkscape:zoom="8"
     inkscape:cx="59.875"
     inkscape:cy="56.8125"
     inkscape:window-width="2560"
     inkscape:window-height="1537"
     inkscape:window-x="1912"
     inkscape:window-y="-8"
     inkscape:window-maximized="1"
     inkscape:current-layer="mirror-path-effect1076"
     inkscape:snap-center="false" />
  <defs
     id="defs2">
    <inkscape:path-effect
       effect="mirror_symmetry"
       start_point="49.981932,41.674552"
       end_point="49.981932,59.533927"
       center_point="49.981932,50.604239"
       id="path-effect1076"
       is_visible="true"
       lpeversion="1.1"
       mode="vertical"
       discard_orig_path="false"
       fuse_paths="false"
       oposite_fuse="false"
       split_items="true"
       split_open="false" />
    <inkscape:path-effect
       effect="copy_rotate"
       starting_point="0,0"
       origin="39.27,50.6"
       id="path-effect879"
       is_visible="true"
       lpeversion="1"
       method="normal"
       num_copies="8"
       starting_angle="0"
       rotation_angle="45"
       gap="0"
       copies_to_360="true"
       mirror_copies="false"
       split_items="true" />
    <inkscape:path-effect
       effect="fillet_chamfer"
       id="path-effect19039"
       is_visible="true"
       lpeversion="1"
       satellites_param="F,0,0,1,0,0,0,1 @ F,0,0,1,0,0,0,1 @ F,0,0,1,0,0,0,1 @ F,0,0,1,0,0,0,1 @ F,0,0,1,0,0,0,1 @ F,0,0,1,0,0,0,1 @ F,0,0,1,0,0,0,1 @ F,0,0,1,0,0,0,1"
       unit="px"
       method="auto"
       mode="F"
       radius="0"
       chamfer_steps="1"
       flexible="false"
       use_knot_distance="true"
       apply_no_radius="true"
       apply_with_radius="true"
       only_selected="false"
       hide_knots="false" />
    <inkscape:path-effect
       effect="copy_rotate"
       starting_point="0,0"
       origin="39.8,51.25"
       id="path-effect19035"
       is_visible="true"
       lpeversion="1"
       method="normal"
       num_copies="8"
       starting_angle="0"
       rotation_angle="45"
       gap="0"
       copies_to_360="true"
       mirror_copies="false"
       split_items="false" />
    <inkscape:path-effect
       effect="copy_rotate"
       starting_point="0,0"
       origin="50,70"
       id="path-effect18955"
       is_visible="true"
       lpeversion="1"
       method="normal"
       num_copies="8"
       starting_angle="0"
       rotation_angle="45"
       gap="0"
       copies_to_360="true"
       mirror_copies="false"
       split_items="false" />
    <inkscape:path-effect
       effect="fillet_chamfer"
       id="path-effect18869"
       is_visible="true"
       lpeversion="1"
       satellites_param="F,0,0,1,0,1,0,1 @ F,0,0,1,0,1,0,1 @ F,0,0,1,0,1,0,1 @ F,0,0,1,0,1,0,1 @ F,0,0,1,0,1,0,1 @ F,0,0,1,0,1,0,1 @ F,0,0,1,0,1,0,1 @ F,0,0,1,0,1,0,1 @ F,0,0,1,0,1,0,1 @ F,0,0,1,0,1,0,1"
       unit="px"
       method="auto"
       mode="F"
       radius="1"
       chamfer_steps="1"
       flexible="false"
       use_knot_distance="true"
       apply_no_radius="true"
       apply_with_radius="true"
       only_selected="true"
       hide_knots="false" />
    <inkscape:path-effect
       effect="copy_rotate"
       starting_point="0,0"
       origin="-50,-50"
       id="path-effect13342"
       is_visible="true"
       lpeversion="1"
       method="normal"
       num_copies="8"
       starting_angle="0"
       rotation_angle="60"
       gap="0"
       copies_to_360="true"
       mirror_copies="false"
       split_items="true" />
    <inkscape:path-effect
       effect="copy_rotate"
       starting_point="0,0"
       origin="-40,-40"
       id="path-effect12657"
       is_visible="true"
       lpeversion="1"
       method="normal"
       num_copies="8"
       starting_angle="0"
       rotation_angle="60"
       gap="100"
       copies_to_360="true"
       mirror_copies="false"
       split_items="false" />
    <inkscape:path-effect
       effect="copy_rotate"
       starting_point="0,0"
       origin="2,12"
       id="path-effect12655"
       is_visible="true"
       lpeversion="1"
       method="normal"
       num_copies="8"
       starting_angle="0"
       rotation_angle="60"
       gap="0.02"
       copies_to_360="true"
       mirror_copies="false"
       split_items="false" />
    <inkscape:path-effect
       effect="copy_rotate"
       starting_point="0,0"
       origin="35.45,46.618946"
       id="path-effect10400"
       is_visible="true"
       lpeversion="1"
       method="normal"
       num_copies="8"
       starting_angle="0"
       rotation_angle="60"
       gap="100"
       copies_to_360="true"
       mirror_copies="false"
       split_items="false" />
    <inkscape:path-effect
       effect="copy_rotate"
       starting_point="0,0"
       origin="35.45,46.618946"
       id="path-effect9727"
       is_visible="true"
       lpeversion="1"
       method="normal"
       num_copies="8"
       starting_angle="0"
       rotation_angle="60"
       gap="100"
       copies_to_360="true"
       mirror_copies="false"
       split_items="false" />
  </defs>
  <g
     inkscape:label="Layer 1"
     id="layer1"
     transform="translate(-29.609015,-37.044344)"
     sodipodi:insensitive="true">
    <rect
       style="fill:none;stroke:#ffffff;stroke-width:0.264583;stroke-linejoin:round;stroke-miterlimit:4;stroke-dasharray:none;stroke-opacity:1"
       id="rect846"
       width="44.317707"
       height="25.135416"
       x="29.741306"
       y="37.176636"
       rx="0.26458332"
       ry="0.26458332"
       inkscape:label="rect846" />
    <g
       id="g10368"
       inkscape:path-effect="#path-effect1076">
      <path
         style="fill:#ffffff;fill-opacity:0.181818;stroke:none;stroke-width:0.264583px;stroke-linecap:butt;stroke-linejoin:miter;stroke-opacity:1"
         d="m 30.931932,41.674552 v 17.859375 h 17.197916 l 2.38125,-1.852083 V 47.627677 l -6.482291,-5.953125 z"
         id="path1526"
         sodipodi:nodetypes="ccccccc"
         inkscape:original-d="m 30.931932,41.674552 v 17.859375 h 17.197916 l 2.38125,-1.852083 V 47.627677 l -6.482291,-5.953125 z" />
      <g
         id="g1021"
         transform="matrix(1.1812856,0,0,1.1812856,-6.6884683,-9.1738256)"
         style="stroke-width:0.846535">
        <g
           id="g1574"
           inkscape:label="wheel-3"
           transform="matrix(0.97838827,0,0,0.97838827,0.84861295,1.0936453)"
           style="stroke-width:0.865234">
          <circle
             style="fill:none;fill-opacity:0.258741;stroke:#353535;stroke-width:0.804051;stroke-linejoin:round;stroke-miterlimit:4;stroke-dasharray:none;stroke-opacity:1"
             id="path14890"
             cx="39.266312"
             cy="50.604244"
             r="6.4067917"
             inkscape:label="fff" />
          <path
             style="fill:none;stroke:#242424;stroke-width:0.176504px;stroke-linecap:round;stroke-linejoin:miter;stroke-opacity:1"
             d="m 39.26631,43.9405 v 0.516465"
             id="path15070"
             inkscape:original-d="m 39.26631,43.9405 v 0.516465" />
        </g>
        <circle
           style="fill:#353535;fill-opacity:1;stroke:none;stroke-width:0;stroke-linejoin:round;stroke-miterlimit:4;stroke-dasharray:none;stroke-opacity:1"
           id="path9452"
           cx="39.266312"
           cy="50.604248"
           r="1.4386719"
           inkscape:label="button-23" />
        <g
           id="g875"
           inkscape:path-effect="#path-effect879"
           style="stroke-width:0.846535"
           inkscape:label="button-15">
          <path
             id="path17805"
             d="m 39.266307,44.965307 c -0.612161,0.0041 -1.218977,0.107781 -1.796753,0.306526 -0.138166,0.04753 -0.202526,0.201247 -0.146328,0.336133 l 1.318876,3.165573 c 0.0562,0.134887 0.177107,0.218365 0.272805,0.197725 0.05768,-0.01255 0.115983,-0.02204 0.174666,-0.02842 0.05871,-0.0062 0.117699,-0.0093 0.176734,-0.0093 0.05817,6.7e-5 0.116301,0.0032 0.174149,0.0093 0.05797,0.0061 0.115584,0.01525 0.172599,0.02739 0.09423,0.02022 0.213561,-0.06406 0.269188,-0.199186 l 1.31009,-3.182288 c 0.05563,-0.135122 -0.0096,-0.287976 -0.148233,-0.334174 -0.572726,-0.190876 -1.172954,-0.288727 -1.777793,-0.289276 z"
             style="fill:#353535;fill-opacity:1;stroke:none;stroke-width:0.422839;stroke-linejoin:round;stroke-miterlimit:4;stroke-dasharray:none;stroke-opacity:1"
             inkscape:original-d="m 39.266307,44.965307 c -0.612161,0.0041 -1.218977,0.107781 -1.796753,0.306526 -0.138166,0.04753 -0.202526,0.201247 -0.146328,0.336133 l 1.318876,3.165573 c 0.0562,0.134887 0.177107,0.218365 0.272805,0.197725 0.05768,-0.01255 0.115983,-0.02204 0.174666,-0.02842 0.05871,-0.0062 0.117699,-0.0093 0.176734,-0.0093 0.05817,6.7e-5 0.116301,0.0032 0.174149,0.0093 0.05797,0.0061 0.115584,0.01525 0.172599,0.02739 0.09423,0.02022 0.213561,-0.06406 0.269188,-0.199186 l 1.31009,-3.182288 c 0.05563,-0.135122 -0.0096,-0.287976 -0.148233,-0.334174 -0.572726,-0.190876 -1.172954,-0.288727 -1.777793,-0.289276 z" />
          <path
             fill="none"
             height="1.0583333"
             width="1.0583333"
             id="rect19332"
             x="38.728382"
             y="45.674713"
             style="stroke-width:30.4753"
             sodipodi:type="rect"
             d="m 38.728382,45.674713 h 1.058333 v 1.058333 h -1.058333 z" />
          <path
             d="m 39.257549,46.071587 c 0.07276,0 0.132291,0.05953 0.132291,0.132292 0,0.07276 -0.05953,0.132291 -0.132291,0.132291 -0.07276,0 -0.132292,-0.05953 -0.132292,-0.132291 0,-0.07276 0.05953,-0.132292 0.132292,-0.132292 m 0,-0.08819 c -0.121709,0 -0.220486,0.09878 -0.220486,0.220486 0,0.121708 0.09878,0.220486 0.220486,0.220486 0.121708,0 0.220486,-0.09878 0.220486,-0.220486 0,-0.121709 -0.09878,-0.220486 -0.220486,-0.220486 z m -0.440973,0.264583 h 0.08819 c 0.02425,0 0.0441,-0.01984 0.0441,-0.0441 0,-0.02425 -0.01984,-0.0441 -0.0441,-0.0441 h -0.08819 c -0.02425,0 -0.0441,0.01984 -0.0441,0.0441 0,0.02425 0.01984,0.0441 0.0441,0.0441 z m 0.79375,0 h 0.08819 c 0.02425,0 0.0441,-0.01984 0.0441,-0.0441 0,-0.02425 -0.01984,-0.0441 -0.0441,-0.0441 h -0.08819 c -0.02425,0 -0.0441,0.01984 -0.0441,0.0441 0,0.02425 0.01984,0.0441 0.0441,0.0441 z m -0.396875,-0.48507 v 0.08819 c 0,0.02425 0.01984,0.0441 0.0441,0.0441 0.02425,0 0.0441,-0.01984 0.0441,-0.0441 v -0.08819 c 0,-0.02425 -0.01984,-0.0441 -0.0441,-0.0441 -0.02425,0 -0.0441,0.01984 -0.0441,0.0441 z m 0,0.79375 v 0.0882 c 0,0.02425 0.01984,0.0441 0.0441,0.0441 0.02425,0 0.0441,-0.01984 0.0441,-0.0441 v -0.0882 c 0,-0.02425 -0.01984,-0.0441 -0.0441,-0.0441 -0.02425,0 -0.0441,0.01984 -0.0441,0.0441 z m -0.220927,-0.679979 c -0.0172,-0.0172 -0.04542,-0.0172 -0.06218,0 -0.0172,0.0172 -0.0172,0.04542 0,0.06218 l 0.04674,0.04674 c 0.0172,0.0172 0.04542,0.0172 0.06218,0 0.01676,-0.0172 0.0172,-0.04542 0,-0.06218 z m 0.545483,0.545483 c -0.0172,-0.0172 -0.04542,-0.0172 -0.06218,0 -0.0172,0.0172 -0.0172,0.04542 0,0.06218 l 0.04674,0.04674 c 0.0172,0.0172 0.04542,0.0172 0.06218,0 0.0172,-0.0172 0.0172,-0.04542 0,-0.06218 z m 0.04674,-0.483306 c 0.0172,-0.0172 0.0172,-0.04542 0,-0.06218 -0.0172,-0.0172 -0.04542,-0.0172 -0.06218,0 l -0.04674,0.04674 c -0.0172,0.0172 -0.0172,0.04542 0,0.06218 0.0172,0.01676 0.04542,0.0172 0.06218,0 z m -0.545483,0.545483 c 0.0172,-0.0172 0.0172,-0.04542 0,-0.06218 -0.0172,-0.0172 -0.04542,-0.0172 -0.06218,0 l -0.04674,0.04674 c -0.0172,0.0172 -0.0172,0.04542 0,0.06218 0.0172,0.01676 0.04542,0.0172 0.06218,0 z"
             id="path19334"
             style="fill:#ffffff;fill-opacity:0.201299;stroke-width:0.223978;stroke-miterlimit:4;stroke-dasharray:none"
             inkscape:original-d="m 39.257549,46.071587 c 0.07276,0 0.132291,0.05953 0.132291,0.132292 0,0.07276 -0.05953,0.132291 -0.132291,0.132291 -0.07276,0 -0.132292,-0.05953 -0.132292,-0.132291 0,-0.07276 0.05953,-0.132292 0.132292,-0.132292 m 0,-0.08819 c -0.121709,0 -0.220486,0.09878 -0.220486,0.220486 0,0.121708 0.09878,0.220486 0.220486,0.220486 0.121708,0 0.220486,-0.09878 0.220486,-0.220486 0,-0.121709 -0.09878,-0.220486 -0.220486,-0.220486 z m -0.440973,0.264583 h 0.08819 c 0.02425,0 0.0441,-0.01984 0.0441,-0.0441 0,-0.02425 -0.01984,-0.0441 -0.0441,-0.0441 h -0.08819 c -0.02425,0 -0.0441,0.01984 -0.0441,0.0441 0,0.02425 0.01984,0.0441 0.0441,0.0441 z m 0.79375,0 h 0.08819 c 0.02425,0 0.0441,-0.01984 0.0441,-0.0441 0,-0.02425 -0.01984,-0.0441 -0.0441,-0.0441 h -0.08819 c -0.02425,0 -0.0441,0.01984 -0.0441,0.0441 0,0.02425 0.01984,0.0441 0.0441,0.0441 z m -0.396875,-0.48507 v 0.08819 c 0,0.02425 0.01984,0.0441 0.0441,0.0441 0.02425,0 0.0441,-0.01984 0.0441,-0.0441 v -0.08819 c 0,-0.02425 -0.01984,-0.0441 -0.0441,-0.0441 -0.02425,0 -0.0441,0.01984 -0.0441,0.0441 z m 0,0.79375 v 0.0882 c 0,0.02425 0.01984,0.0441 0.0441,0.0441 0.02425,0 0.0441,-0.01984 0.0441,-0.0441 v -0.0882 c 0,-0.02425 -0.01984,-0.0441 -0.0441,-0.0441 -0.02425,0 -0.0441,0.01984 -0.0441,0.0441 z m -0.220927,-0.679979 c -0.0172,-0.0172 -0.04542,-0.0172 -0.06218,0 -0.0172,0.0172 -0.0172,0.04542 0,0.06218 l 0.04674,0.04674 c 0.0172,0.0172 0.04542,0.0172 0.06218,0 0.01676,-0.0172 0.0172,-0.04542 0,-0.06218 z m 0.545483,0.545483 c -0.0172,-0.0172 -0.04542,-0.0172 -0.06218,0 -0.0172,0.0172 -0.0172,0.04542 0,0.06218 l 0.04674,0.04674 c 0.0172,0.0172 0.04542,0.0172 0.06218,0 0.0172,-0.0172 0.0172,-0.04542 0,-0.06218 z m 0.04674,-0.483306 c 0.0172,-0.0172 0.0172,-0.04542 0,-0.06218 -0.0172,-0.0172 -0.04542,-0.0172 -0.06218,0 l -0.04674,0.04674 c -0.0172,0.0172 -0.0172,0.04542 0,0.06218 0.0172,0.01676 0.04542,0.0172 0.06218,0 z m -0.545483,0.545483 c 0.0172,-0.0172 0.0172,-0.04542 0,-0.06218 -0.0172,-0.0172 -0.04542,-0.0172 -0.06218,0 l -0.04674,0.04674 c -0.0172,0.0172 -0.0172,0.04542 0,0.06218 0.0172,0.01676 0.04542,0.0172 0.06218,0 z" />
        </g>
        <g
           id="rotated-0-path-effect879"
           style="display:inline;stroke-width:0.846535"
           transform="rotate(-45,39.27,50.6)"
           inkscape:label="button-8">
          <path
             style="fill:#353535;fill-opacity:1;stroke:none;stroke-width:0.422839;stroke-linejoin:round;stroke-miterlimit:4;stroke-dasharray:none;stroke-opacity:1"
             id="path1522"
             d="m 39.266307,44.965307 c -0.612161,0.0041 -1.218977,0.107781 -1.796753,0.306526 -0.138166,0.04753 -0.202526,0.201247 -0.146328,0.336133 l 1.318876,3.165573 c 0.0562,0.134887 0.177107,0.218365 0.272805,0.197725 0.05768,-0.01255 0.115983,-0.02204 0.174666,-0.02842 0.05871,-0.0062 0.117699,-0.0093 0.176734,-0.0093 0.05817,6.7e-5 0.116301,0.0032 0.174149,0.0093 0.05797,0.0061 0.115584,0.01525 0.172599,0.02739 0.09423,0.02022 0.213561,-0.06406 0.269188,-0.199186 l 1.31009,-3.182288 c 0.05563,-0.135122 -0.0096,-0.287976 -0.148233,-0.334174 -0.572726,-0.190876 -1.172954,-0.288727 -1.777793,-0.289276 z" />
          <path
             style="stroke-width:30.4753"
             id="path1524"
             d="m 38.728382,45.674713 h 1.058333 v 1.058333 h -1.058333 z"
             fill="none" />
          <path
             style="fill:#ffffff;fill-opacity:0.201299;stroke-width:0.223978;stroke-miterlimit:4;stroke-dasharray:none"
             id="path1527"
             d="m 39.257549,46.071587 c 0.07276,0 0.132291,0.05953 0.132291,0.132292 0,0.07276 -0.05953,0.132291 -0.132291,0.132291 -0.07276,0 -0.132292,-0.05953 -0.132292,-0.132291 0,-0.07276 0.05953,-0.132292 0.132292,-0.132292 m 0,-0.08819 c -0.121709,0 -0.220486,0.09878 -0.220486,0.220486 0,0.121708 0.09878,0.220486 0.220486,0.220486 0.121708,0 0.220486,-0.09878 0.220486,-0.220486 0,-0.121709 -0.09878,-0.220486 -0.220486,-0.220486 z m -0.440973,0.264583 h 0.08819 c 0.02425,0 0.0441,-0.01984 0.0441,-0.0441 0,-0.02425 -0.01984,-0.0441 -0.0441,-0.0441 h -0.08819 c -0.02425,0 -0.0441,0.01984 -0.0441,0.0441 0,0.02425 0.01984,0.0441 0.0441,0.0441 z m 0.79375,0 h 0.08819 c 0.02425,0 0.0441,-0.01984 0.0441,-0.0441 0,-0.02425 -0.01984,-0.0441 -0.0441,-0.0441 h -0.08819 c -0.02425,0 -0.0441,0.01984 -0.0441,0.0441 0,0.02425 0.01984,0.0441 0.0441,0.0441 z m -0.396875,-0.48507 v 0.08819 c 0,0.02425 0.01984,0.0441 0.0441,0.0441 0.02425,0 0.0441,-0.01984 0.0441,-0.0441 v -0.08819 c 0,-0.02425 -0.01984,-0.0441 -0.0441,-0.0441 -0.02425,0 -0.0441,0.01984 -0.0441,0.0441 z m 0,0.79375 v 0.0882 c 0,0.02425 0.01984,0.0441 0.0441,0.0441 0.02425,0 0.0441,-0.01984 0.0441,-0.0441 v -0.0882 c 0,-0.02425 -0.01984,-0.0441 -0.0441,-0.0441 -0.02425,0 -0.0441,0.01984 -0.0441,0.0441 z m -0.220927,-0.679979 c -0.0172,-0.0172 -0.04542,-0.0172 -0.06218,0 -0.0172,0.0172 -0.0172,0.04542 0,0.06218 l 0.04674,0.04674 c 0.0172,0.0172 0.04542,0.0172 0.06218,0 0.01676,-0.0172 0.0172,-0.04542 0,-0.06218 z m 0.545483,0.545483 c -0.0172,-0.0172 -0.04542,-0.0172 -0.06218,0 -0.0172,0.0172 -0.0172,0.04542 0,0.06218 l 0.04674,0.04674 c 0.0172,0.0172 0.04542,0.0172 0.06218,0 0.0172,-0.0172 0.0172,-0.04542 0,-0.06218 z m 0.04674,-0.483306 c 0.0172,-0.0172 0.0172,-0.04542 0,-0.06218 -0.0172,-0.0172 -0.04542,-0.0172 -0.06218,0 l -0.04674,0.04674 c -0.0172,0.0172 -0.0172,0.04542 0,0.06218 0.0172,0.01676 0.04542,0.0172 0.06218,0 z m -0.545483,0.545483 c 0.0172,-0.0172 0.0172,-0.04542 0,-0.06218 -0.0172,-0.0172 -0.04542,-0.0172 -0.06218,0 l -0.04674,0.04674 c -0.0172,0.0172 -0.0172,0.04542 0,0.06218 0.0172,0.01676 0.04542,0.0172 0.06218,0 z" />
        </g>
        <g
           id="rotated-1-path-effect879"
           style="display:inline;stroke-width:0.846535"
           transform="rotate(-90,39.27,50.6)"
           inkscape:label="button-9">
          <path
             style="fill:#353535;fill-opacity:1;stroke:none;stroke-width:0.422839;stroke-linejoin:round;stroke-miterlimit:4;stroke-dasharray:none;stroke-opacity:1"
             id="path1530"
             d="m 39.266307,44.965307 c -0.612161,0.0041 -1.218977,0.107781 -1.796753,0.306526 -0.138166,0.04753 -0.202526,0.201247 -0.146328,0.336133 l 1.318876,3.165573 c 0.0562,0.134887 0.177107,0.218365 0.272805,0.197725 0.05768,-0.01255 0.115983,-0.02204 0.174666,-0.02842 0.05871,-0.0062 0.117699,-0.0093 0.176734,-0.0093 0.05817,6.7e-5 0.116301,0.0032 0.174149,0.0093 0.05797,0.0061 0.115584,0.01525 0.172599,0.02739 0.09423,0.02022 0.213561,-0.06406 0.269188,-0.199186 l 1.31009,-3.182288 c 0.05563,-0.135122 -0.0096,-0.287976 -0.148233,-0.334174 -0.572726,-0.190876 -1.172954,-0.288727 -1.777793,-0.289276 z" />
          <path
             style="stroke-width:30.4753"
             id="path1532"
             d="m 38.728382,45.674713 h 1.058333 v 1.058333 h -1.058333 z"
             fill="none" />
          <path
             style="fill:#ffffff;fill-opacity:0.201299;stroke-width:0.223978;stroke-miterlimit:4;stroke-dasharray:none"
             id="path1534"
             d="m 39.257549,46.071587 c 0.07276,0 0.132291,0.05953 0.132291,0.132292 0,0.07276 -0.05953,0.132291 -0.132291,0.132291 -0.07276,0 -0.132292,-0.05953 -0.132292,-0.132291 0,-0.07276 0.05953,-0.132292 0.132292,-0.132292 m 0,-0.08819 c -0.121709,0 -0.220486,0.09878 -0.220486,0.220486 0,0.121708 0.09878,0.220486 0.220486,0.220486 0.121708,0 0.220486,-0.09878 0.220486,-0.220486 0,-0.121709 -0.09878,-0.220486 -0.220486,-0.220486 z m -0.440973,0.264583 h 0.08819 c 0.02425,0 0.0441,-0.01984 0.0441,-0.0441 0,-0.02425 -0.01984,-0.0441 -0.0441,-0.0441 h -0.08819 c -0.02425,0 -0.0441,0.01984 -0.0441,0.0441 0,0.02425 0.01984,0.0441 0.0441,0.0441 z m 0.79375,0 h 0.08819 c 0.02425,0 0.0441,-0.01984 0.0441,-0.0441 0,-0.02425 -0.01984,-0.0441 -0.0441,-0.0441 h -0.08819 c -0.02425,0 -0.0441,0.01984 -0.0441,0.0441 0,0.02425 0.01984,0.0441 0.0441,0.0441 z m -0.396875,-0.48507 v 0.08819 c 0,0.02425 0.01984,0.0441 0.0441,0.0441 0.02425,0 0.0441,-0.01984 0.0441,-0.0441 v -0.08819 c 0,-0.02425 -0.01984,-0.0441 -0.0441,-0.0441 -0.02425,0 -0.0441,0.01984 -0.0441,0.0441 z m 0,0.79375 v 0.0882 c 0,0.02425 0.01984,0.0441 0.0441,0.0441 0.02425,0 0.0441,-0.01984 0.0441,-0.0441 v -0.0882 c 0,-0.02425 -0.01984,-0.0441 -0.0441,-0.0441 -0.02425,0 -0.0441,0.01984 -0.0441,0.0441 z m -0.220927,-0.679979 c -0.0172,-0.0172 -0.04542,-0.0172 -0.06218,0 -0.0172,0.0172 -0.0172,0.04542 0,0.06218 l 0.04674,0.04674 c 0.0172,0.0172 0.04542,0.0172 0.06218,0 0.01676,-0.0172 0.0172,-0.04542 0,-0.06218 z m 0.545483,0.545483 c -0.0172,-0.0172 -0.04542,-0.0172 -0.06218,0 -0.0172,0.0172 -0.0172,0.04542 0,0.06218 l 0.04674,0.04674 c 0.0172,0.0172 0.04542,0.0172 0.06218,0 0.0172,-0.0172 0.0172,-0.04542 0,-0.06218 z m 0.04674,-0.483306 c 0.0172,-0.0172 0.0172,-0.04542 0,-0.06218 -0.0172,-0.0172 -0.04542,-0.0172 -0.06218,0 l -0.04674,0.04674 c -0.0172,0.0172 -0.0172,0.04542 0,0.06218 0.0172,0.01676 0.04542,0.0172 0.06218,0 z m -0.545483,0.545483 c 0.0172,-0.0172 0.0172,-0.04542 0,-0.06218 -0.0172,-0.0172 -0.04542,-0.0172 -0.06218,0 l -0.04674,0.04674 c -0.0172,0.0172 -0.0172,0.04542 0,0.06218 0.0172,0.01676 0.04542,0.0172 0.06218,0 z" />
        </g>
        <g
           id="rotated-2-path-effect879"
           style="display:inline;stroke-width:0.846535"
           transform="rotate(-135,39.27,50.6)"
           inkscape:label="button-10">
          <path
             style="fill:#353535;fill-opacity:1;stroke:none;stroke-width:0.422839;stroke-linejoin:round;stroke-miterlimit:4;stroke-dasharray:none;stroke-opacity:1"
             id="path1537"
             d="m 39.266307,44.965307 c -0.612161,0.0041 -1.218977,0.107781 -1.796753,0.306526 -0.138166,0.04753 -0.202526,0.201247 -0.146328,0.336133 l 1.318876,3.165573 c 0.0562,0.134887 0.177107,0.218365 0.272805,0.197725 0.05768,-0.01255 0.115983,-0.02204 0.174666,-0.02842 0.05871,-0.0062 0.117699,-0.0093 0.176734,-0.0093 0.05817,6.7e-5 0.116301,0.0032 0.174149,0.0093 0.05797,0.0061 0.115584,0.01525 0.172599,0.02739 0.09423,0.02022 0.213561,-0.06406 0.269188,-0.199186 l 1.31009,-3.182288 c 0.05563,-0.135122 -0.0096,-0.287976 -0.148233,-0.334174 -0.572726,-0.190876 -1.172954,-0.288727 -1.777793,-0.289276 z" />
          <path
             style="stroke-width:30.4753"
             id="path1539"
             d="m 38.728382,45.674713 h 1.058333 v 1.058333 h -1.058333 z"
             fill="none" />
          <path
             style="fill:#ffffff;fill-opacity:0.201299;stroke-width:0.223978;stroke-miterlimit:4;stroke-dasharray:none"
             id="path1541"
             d="m 39.257549,46.071587 c 0.07276,0 0.132291,0.05953 0.132291,0.132292 0,0.07276 -0.05953,0.132291 -0.132291,0.132291 -0.07276,0 -0.132292,-0.05953 -0.132292,-0.132291 0,-0.07276 0.05953,-0.132292 0.132292,-0.132292 m 0,-0.08819 c -0.121709,0 -0.220486,0.09878 -0.220486,0.220486 0,0.121708 0.09878,0.220486 0.220486,0.220486 0.121708,0 0.220486,-0.09878 0.220486,-0.220486 0,-0.121709 -0.09878,-0.220486 -0.220486,-0.220486 z m -0.440973,0.264583 h 0.08819 c 0.02425,0 0.0441,-0.01984 0.0441,-0.0441 0,-0.02425 -0.01984,-0.0441 -0.0441,-0.0441 h -0.08819 c -0.02425,0 -0.0441,0.01984 -0.0441,0.0441 0,0.02425 0.01984,0.0441 0.0441,0.0441 z m 0.79375,0 h 0.08819 c 0.02425,0 0.0441,-0.01984 0.0441,-0.0441 0,-0.02425 -0.01984,-0.0441 -0.0441,-0.0441 h -0.08819 c -0.02425,0 -0.0441,0.01984 -0.0441,0.0441 0,0.02425 0.01984,0.0441 0.0441,0.0441 z m -0.396875,-0.48507 v 0.08819 c 0,0.02425 0.01984,0.0441 0.0441,0.0441 0.02425,0 0.0441,-0.01984 0.0441,-0.0441 v -0.08819 c 0,-0.02425 -0.01984,-0.0441 -0.0441,-0.0441 -0.02425,0 -0.0441,0.01984 -0.0441,0.0441 z m 0,0.79375 v 0.0882 c 0,0.02425 0.01984,0.0441 0.0441,0.0441 0.02425,0 0.0441,-0.01984 0.0441,-0.0441 v -0.0882 c 0,-0.02425 -0.01984,-0.0441 -0.0441,-0.0441 -0.02425,0 -0.0441,0.01984 -0.0441,0.0441 z m -0.220927,-0.679979 c -0.0172,-0.0172 -0.04542,-0.0172 -0.06218,0 -0.0172,0.0172 -0.0172,0.04542 0,0.06218 l 0.04674,0.04674 c 0.0172,0.0172 0.04542,0.0172 0.06218,0 0.01676,-0.0172 0.0172,-0.04542 0,-0.06218 z m 0.545483,0.545483 c -0.0172,-0.0172 -0.04542,-0.0172 -0.06218,0 -0.0172,0.0172 -0.0172,0.04542 0,0.06218 l 0.04674,0.04674 c 0.0172,0.0172 0.04542,0.0172 0.06218,0 0.0172,-0.0172 0.0172,-0.04542 0,-0.06218 z m 0.04674,-0.483306 c 0.0172,-0.0172 0.0172,-0.04542 0,-0.06218 -0.0172,-0.0172 -0.04542,-0.0172 -0.06218,0 l -0.04674,0.04674 c -0.0172,0.0172 -0.0172,0.04542 0,0.06218 0.0172,0.01676 0.04542,0.0172 0.06218,0 z m -0.545483,0.545483 c 0.0172,-0.0172 0.0172,-0.04542 0,-0.06218 -0.0172,-0.0172 -0.04542,-0.0172 -0.06218,0 l -0.04674,0.04674 c -0.0172,0.0172 -0.0172,0.04542 0,0.06218 0.0172,0.01676 0.04542,0.0172 0.06218,0 z" />
        </g>
        <g
           id="rotated-3-path-effect879"
           style="display:inline;stroke-width:0.846535"
           transform="rotate(180,39.27,50.6)"
           inkscape:label="button-11">
          <path
             style="fill:#353535;fill-opacity:1;stroke:none;stroke-width:0.422839;stroke-linejoin:round;stroke-miterlimit:4;stroke-dasharray:none;stroke-opacity:1"
             id="path1544"
             d="m 39.266307,44.965307 c -0.612161,0.0041 -1.218977,0.107781 -1.796753,0.306526 -0.138166,0.04753 -0.202526,0.201247 -0.146328,0.336133 l 1.318876,3.165573 c 0.0562,0.134887 0.177107,0.218365 0.272805,0.197725 0.05768,-0.01255 0.115983,-0.02204 0.174666,-0.02842 0.05871,-0.0062 0.117699,-0.0093 0.176734,-0.0093 0.05817,6.7e-5 0.116301,0.0032 0.174149,0.0093 0.05797,0.0061 0.115584,0.01525 0.172599,0.02739 0.09423,0.02022 0.213561,-0.06406 0.269188,-0.199186 l 1.31009,-3.182288 c 0.05563,-0.135122 -0.0096,-0.287976 -0.148233,-0.334174 -0.572726,-0.190876 -1.172954,-0.288727 -1.777793,-0.289276 z" />
          <path
             style="stroke-width:30.4753"
             id="path1546"
             d="m 38.728382,45.674713 h 1.058333 v 1.058333 h -1.058333 z"
             fill="none" />
          <path
             style="fill:#ffffff;fill-opacity:0.201299;stroke-width:0.223978;stroke-miterlimit:4;stroke-dasharray:none"
             id="path1548"
             d="m 39.257549,46.071587 c 0.07276,0 0.132291,0.05953 0.132291,0.132292 0,0.07276 -0.05953,0.132291 -0.132291,0.132291 -0.07276,0 -0.132292,-0.05953 -0.132292,-0.132291 0,-0.07276 0.05953,-0.132292 0.132292,-0.132292 m 0,-0.08819 c -0.121709,0 -0.220486,0.09878 -0.220486,0.220486 0,0.121708 0.09878,0.220486 0.220486,0.220486 0.121708,0 0.220486,-0.09878 0.220486,-0.220486 0,-0.121709 -0.09878,-0.220486 -0.220486,-0.220486 z m -0.440973,0.264583 h 0.08819 c 0.02425,0 0.0441,-0.01984 0.0441,-0.0441 0,-0.02425 -0.01984,-0.0441 -0.0441,-0.0441 h -0.08819 c -0.02425,0 -0.0441,0.01984 -0.0441,0.0441 0,0.02425 0.01984,0.0441 0.0441,0.0441 z m 0.79375,0 h 0.08819 c 0.02425,0 0.0441,-0.01984 0.0441,-0.0441 0,-0.02425 -0.01984,-0.0441 -0.0441,-0.0441 h -0.08819 c -0.02425,0 -0.0441,0.01984 -0.0441,0.0441 0,0.02425 0.01984,0.0441 0.0441,0.0441 z m -0.396875,-0.48507 v 0.08819 c 0,0.02425 0.01984,0.0441 0.0441,0.0441 0.02425,0 0.0441,-0.01984 0.0441,-0.0441 v -0.08819 c 0,-0.02425 -0.01984,-0.0441 -0.0441,-0.0441 -0.02425,0 -0.0441,0.01984 -0.0441,0.0441 z m 0,0.79375 v 0.0882 c 0,0.02425 0.01984,0.0441 0.0441,0.0441 0.02425,0 0.0441,-0.01984 0.0441,-0.0441 v -0.0882 c 0,-0.02425 -0.01984,-0.0441 -0.0441,-0.0441 -0.02425,0 -0.0441,0.01984 -0.0441,0.0441 z m -0.220927,-0.679979 c -0.0172,-0.0172 -0.04542,-0.0172 -0.06218,0 -0.0172,0.0172 -0.0172,0.04542 0,0.06218 l 0.04674,0.04674 c 0.0172,0.0172 0.04542,0.0172 0.06218,0 0.01676,-0.0172 0.0172,-0.04542 0,-0.06218 z m 0.545483,0.545483 c -0.0172,-0.0172 -0.04542,-0.0172 -0.06218,0 -0.0172,0.0172 -0.0172,0.04542 0,0.06218 l 0.04674,0.04674 c 0.0172,0.0172 0.04542,0.0172 0.06218,0 0.0172,-0.0172 0.0172,-0.04542 0,-0.06218 z m 0.04674,-0.483306 c 0.0172,-0.0172 0.0172,-0.04542 0,-0.06218 -0.0172,-0.0172 -0.04542,-0.0172 -0.06218,0 l -0.04674,0.04674 c -0.0172,0.0172 -0.0172,0.04542 0,0.06218 0.0172,0.01676 0.04542,0.0172 0.06218,0 z m -0.545483,0.545483 c 0.0172,-0.0172 0.0172,-0.04542 0,-0.06218 -0.0172,-0.0172 -0.04542,-0.0172 -0.06218,0 l -0.04674,0.04674 c -0.0172,0.0172 -0.0172,0.04542 0,0.06218 0.0172,0.01676 0.04542,0.0172 0.06218,0 z" />
        </g>
        <g
           id="rotated-4-path-effect879"
           style="display:inline;stroke-width:0.846535"
           transform="rotate(135,39.27,50.6)"
           inkscape:label="button-12">
          <path
             style="fill:#353535;fill-opacity:1;stroke:none;stroke-width:0.422839;stroke-linejoin:round;stroke-miterlimit:4;stroke-dasharray:none;stroke-opacity:1"
             id="path1551"
             d="m 39.266307,44.965307 c -0.612161,0.0041 -1.218977,0.107781 -1.796753,0.306526 -0.138166,0.04753 -0.202526,0.201247 -0.146328,0.336133 l 1.318876,3.165573 c 0.0562,0.134887 0.177107,0.218365 0.272805,0.197725 0.05768,-0.01255 0.115983,-0.02204 0.174666,-0.02842 0.05871,-0.0062 0.117699,-0.0093 0.176734,-0.0093 0.05817,6.7e-5 0.116301,0.0032 0.174149,0.0093 0.05797,0.0061 0.115584,0.01525 0.172599,0.02739 0.09423,0.02022 0.213561,-0.06406 0.269188,-0.199186 l 1.31009,-3.182288 c 0.05563,-0.135122 -0.0096,-0.287976 -0.148233,-0.334174 -0.572726,-0.190876 -1.172954,-0.288727 -1.777793,-0.289276 z" />
          <path
             style="stroke-width:30.4753"
             id="path1553"
             d="m 38.728382,45.674713 h 1.058333 v 1.058333 h -1.058333 z"
             fill="none" />
          <path
             style="fill:#ffffff;fill-opacity:0.201299;stroke-width:0.223978;stroke-miterlimit:4;stroke-dasharray:none"
             id="path1555"
             d="m 39.257549,46.071587 c 0.07276,0 0.132291,0.05953 0.132291,0.132292 0,0.07276 -0.05953,0.132291 -0.132291,0.132291 -0.07276,0 -0.132292,-0.05953 -0.132292,-0.132291 0,-0.07276 0.05953,-0.132292 0.132292,-0.132292 m 0,-0.08819 c -0.121709,0 -0.220486,0.09878 -0.220486,0.220486 0,0.121708 0.09878,0.220486 0.220486,0.220486 0.121708,0 0.220486,-0.09878 0.220486,-0.220486 0,-0.121709 -0.09878,-0.220486 -0.220486,-0.220486 z m -0.440973,0.264583 h 0.08819 c 0.02425,0 0.0441,-0.01984 0.0441,-0.0441 0,-0.02425 -0.01984,-0.0441 -0.0441,-0.0441 h -0.08819 c -0.02425,0 -0.0441,0.01984 -0.0441,0.0441 0,0.02425 0.01984,0.0441 0.0441,0.0441 z m 0.79375,0 h 0.08819 c 0.02425,0 0.0441,-0.01984 0.0441,-0.0441 0,-0.02425 -0.01984,-0.0441 -0.0441,-0.0441 h -0.08819 c -0.02425,0 -0.0441,0.01984 -0.0441,0.0441 0,0.02425 0.01984,0.0441 0.0441,0.0441 z m -0.396875,-0.48507 v 0.08819 c 0,0.02425 0.01984,0.0441 0.0441,0.0441 0.02425,0 0.0441,-0.01984 0.0441,-0.0441 v -0.08819 c 0,-0.02425 -0.01984,-0.0441 -0.0441,-0.0441 -0.02425,0 -0.0441,0.01984 -0.0441,0.0441 z m 0,0.79375 v 0.0882 c 0,0.02425 0.01984,0.0441 0.0441,0.0441 0.02425,0 0.0441,-0.01984 0.0441,-0.0441 v -0.0882 c 0,-0.02425 -0.01984,-0.0441 -0.0441,-0.0441 -0.02425,0 -0.0441,0.01984 -0.0441,0.0441 z m -0.220927,-0.679979 c -0.0172,-0.0172 -0.04542,-0.0172 -0.06218,0 -0.0172,0.0172 -0.0172,0.04542 0,0.06218 l 0.04674,0.04674 c 0.0172,0.0172 0.04542,0.0172 0.06218,0 0.01676,-0.0172 0.0172,-0.04542 0,-0.06218 z m 0.545483,0.545483 c -0.0172,-0.0172 -0.04542,-0.0172 -0.06218,0 -0.0172,0.0172 -0.0172,0.04542 0,0.06218 l 0.04674,0.04674 c 0.0172,0.0172 0.04542,0.0172 0.06218,0 0.0172,-0.0172 0.0172,-0.04542 0,-0.06218 z m 0.04674,-0.483306 c 0.0172,-0.0172 0.0172,-0.04542 0,-0.06218 -0.0172,-0.0172 -0.04542,-0.0172 -0.06218,0 l -0.04674,0.04674 c -0.0172,0.0172 -0.0172,0.04542 0,0.06218 0.0172,0.01676 0.04542,0.0172 0.06218,0 z m -0.545483,0.545483 c 0.0172,-0.0172 0.0172,-0.04542 0,-0.06218 -0.0172,-0.0172 -0.04542,-0.0172 -0.06218,0 l -0.04674,0.04674 c -0.0172,0.0172 -0.0172,0.04542 0,0.06218 0.0172,0.01676 0.04542,0.0172 0.06218,0 z" />
        </g>
        <g
           id="rotated-5-path-effect879"
           style="display:inline;stroke-width:0.846535"
           transform="rotate(90,39.27,50.6)"
           inkscape:label="button-13">
          <path
             style="fill:#353535;fill-opacity:1;stroke:none;stroke-width:0.422839;stroke-linejoin:round;stroke-miterlimit:4;stroke-dasharray:none;stroke-opacity:1"
             id="path1558"
             d="m 39.266307,44.965307 c -0.612161,0.0041 -1.218977,0.107781 -1.796753,0.306526 -0.138166,0.04753 -0.202526,0.201247 -0.146328,0.336133 l 1.318876,3.165573 c 0.0562,0.134887 0.177107,0.218365 0.272805,0.197725 0.05768,-0.01255 0.115983,-0.02204 0.174666,-0.02842 0.05871,-0.0062 0.117699,-0.0093 0.176734,-0.0093 0.05817,6.7e-5 0.116301,0.0032 0.174149,0.0093 0.05797,0.0061 0.115584,0.01525 0.172599,0.02739 0.09423,0.02022 0.213561,-0.06406 0.269188,-0.199186 l 1.31009,-3.182288 c 0.05563,-0.135122 -0.0096,-0.287976 -0.148233,-0.334174 -0.572726,-0.190876 -1.172954,-0.288727 -1.777793,-0.289276 z" />
          <path
             style="stroke-width:30.4753"
             id="path1560"
             d="m 38.728382,45.674713 h 1.058333 v 1.058333 h -1.058333 z"
             fill="none" />
          <path
             style="fill:#ffffff;fill-opacity:0.201299;stroke-width:0.223978;stroke-miterlimit:4;stroke-dasharray:none"
             id="path1562"
             d="m 39.257549,46.071587 c 0.07276,0 0.132291,0.05953 0.132291,0.132292 0,0.07276 -0.05953,0.132291 -0.132291,0.132291 -0.07276,0 -0.132292,-0.05953 -0.132292,-0.132291 0,-0.07276 0.05953,-0.132292 0.132292,-0.132292 m 0,-0.08819 c -0.121709,0 -0.220486,0.09878 -0.220486,0.220486 0,0.121708 0.09878,0.220486 0.220486,0.220486 0.121708,0 0.220486,-0.09878 0.220486,-0.220486 0,-0.121709 -0.09878,-0.220486 -0.220486,-0.220486 z m -0.440973,0.264583 h 0.08819 c 0.02425,0 0.0441,-0.01984 0.0441,-0.0441 0,-0.02425 -0.01984,-0.0441 -0.0441,-0.0441 h -0.08819 c -0.02425,0 -0.0441,0.01984 -0.0441,0.0441 0,0.02425 0.01984,0.0441 0.0441,0.0441 z m 0.79375,0 h 0.08819 c 0.02425,0 0.0441,-0.01984 0.0441,-0.0441 0,-0.02425 -0.01984,-0.0441 -0.0441,-0.0441 h -0.08819 c -0.02425,0 -0.0441,0.01984 -0.0441,0.0441 0,0.02425 0.01984,0.0441 0.0441,0.0441 z m -0.396875,-0.48507 v 0.08819 c 0,0.02425 0.01984,0.0441 0.0441,0.0441 0.02425,0 0.0441,-0.01984 0.0441,-0.0441 v -0.08819 c 0,-0.02425 -0.01984,-0.0441 -0.0441,-0.0441 -0.02425,0 -0.0441,0.01984 -0.0441,0.0441 z m 0,0.79375 v 0.0882 c 0,0.02425 0.01984,0.0441 0.0441,0.0441 0.02425,0 0.0441,-0.01984 0.0441,-0.0441 v -0.0882 c 0,-0.02425 -0.01984,-0.0441 -0.0441,-0.0441 -0.02425,0 -0.0441,0.01984 -0.0441,0.0441 z m -0.220927,-0.679979 c -0.0172,-0.0172 -0.04542,-0.0172 -0.06218,0 -0.0172,0.0172 -0.0172,0.04542 0,0.06218 l 0.04674,0.04674 c 0.0172,0.0172 0.04542,0.0172 0.06218,0 0.01676,-0.0172 0.0172,-0.04542 0,-0.06218 z m 0.545483,0.545483 c -0.0172,-0.0172 -0.04542,-0.0172 -0.06218,0 -0.0172,0.0172 -0.0172,0.04542 0,0.06218 l 0.04674,0.04674 c 0.0172,0.0172 0.04542,0.0172 0.06218,0 0.0172,-0.0172 0.0172,-0.04542 0,-0.06218 z m 0.04674,-0.483306 c 0.0172,-0.0172 0.0172,-0.04542 0,-0.06218 -0.0172,-0.0172 -0.04542,-0.0172 -0.06218,0 l -0.04674,0.04674 c -0.0172,0.0172 -0.0172,0.04542 0,0.06218 0.0172,0.01676 0.04542,0.0172 0.06218,0 z m -0.545483,0.545483 c 0.0172,-0.0172 0.0172,-0.04542 0,-0.06218 -0.0172,-0.0172 -0.04542,-0.0172 -0.06218,0 l -0.04674,0.04674 c -0.0172,0.0172 -0.0172,0.04542 0,0.06218 0.0172,0.01676 0.04542,0.0172 0.06218,0 z" />
        </g>
        <g
           id="rotated-6-path-effect879"
           style="display:inline;stroke-width:0.846535"
           transform="rotate(45,39.27,50.6)"
           inkscape:label="button-14">
          <path
             style="fill:#353535;fill-opacity:1;stroke:none;stroke-width:0.422839;stroke-linejoin:round;stroke-miterlimit:4;stroke-dasharray:none;stroke-opacity:1"
             id="path1565"
             d="m 39.266307,44.965307 c -0.612161,0.0041 -1.218977,0.107781 -1.796753,0.306526 -0.138166,0.04753 -0.202526,0.201247 -0.146328,0.336133 l 1.318876,3.165573 c 0.0562,0.134887 0.177107,0.218365 0.272805,0.197725 0.05768,-0.01255 0.115983,-0.02204 0.174666,-0.02842 0.05871,-0.0062 0.117699,-0.0093 0.176734,-0.0093 0.05817,6.7e-5 0.116301,0.0032 0.174149,0.0093 0.05797,0.0061 0.115584,0.01525 0.172599,0.02739 0.09423,0.02022 0.213561,-0.06406 0.269188,-0.199186 l 1.31009,-3.182288 c 0.05563,-0.135122 -0.0096,-0.287976 -0.148233,-0.334174 -0.572726,-0.190876 -1.172954,-0.288727 -1.777793,-0.289276 z" />
          <path
             style="stroke-width:30.4753"
             id="path1567"
             d="m 38.728382,45.674713 h 1.058333 v 1.058333 h -1.058333 z"
             fill="none" />
          <path
             style="fill:#ffffff;fill-opacity:0.201299;stroke-width:0.223978;stroke-miterlimit:4;stroke-dasharray:none"
             id="path1569"
             d="m 39.257549,46.071587 c 0.07276,0 0.132291,0.05953 0.132291,0.132292 0,0.07276 -0.05953,0.132291 -0.132291,0.132291 -0.07276,0 -0.132292,-0.05953 -0.132292,-0.132291 0,-0.07276 0.05953,-0.132292 0.132292,-0.132292 m 0,-0.08819 c -0.121709,0 -0.220486,0.09878 -0.220486,0.220486 0,0.121708 0.09878,0.220486 0.220486,0.220486 0.121708,0 0.220486,-0.09878 0.220486,-0.220486 0,-0.121709 -0.09878,-0.220486 -0.220486,-0.220486 z m -0.440973,0.264583 h 0.08819 c 0.02425,0 0.0441,-0.01984 0.0441,-0.0441 0,-0.02425 -0.01984,-0.0441 -0.0441,-0.0441 h -0.08819 c -0.02425,0 -0.0441,0.01984 -0.0441,0.0441 0,0.02425 0.01984,0.0441 0.0441,0.0441 z m 0.79375,0 h 0.08819 c 0.02425,0 0.0441,-0.01984 0.0441,-0.0441 0,-0.02425 -0.01984,-0.0441 -0.0441,-0.0441 h -0.08819 c -0.02425,0 -0.0441,0.01984 -0.0441,0.0441 0,0.02425 0.01984,0.0441 0.0441,0.0441 z m -0.396875,-0.48507 v 0.08819 c 0,0.02425 0.01984,0.0441 0.0441,0.0441 0.02425,0 0.0441,-0.01984 0.0441,-0.0441 v -0.08819 c 0,-0.02425 -0.01984,-0.0441 -0.0441,-0.0441 -0.02425,0 -0.0441,0.01984 -0.0441,0.0441 z m 0,0.79375 v 0.0882 c 0,0.02425 0.01984,0.0441 0.0441,0.0441 0.02425,0 0.0441,-0.01984 0.0441,-0.0441 v -0.0882 c 0,-0.02425 -0.01984,-0.0441 -0.0441,-0.0441 -0.02425,0 -0.0441,0.01984 -0.0441,0.0441 z m -0.220927,-0.679979 c -0.0172,-0.0172 -0.04542,-0.0172 -0.06218,0 -0.0172,0.0172 -0.0172,0.04542 0,0.06218 l 0.04674,0.04674 c 0.0172,0.0172 0.04542,0.0172 0.06218,0 0.01676,-0.0172 0.0172,-0.04542 0,-0.06218 z m 0.545483,0.545483 c -0.0172,-0.0172 -0.04542,-0.0172 -0.06218,0 -0.0172,0.0172 -0.0172,0.04542 0,0.06218 l 0.04674,0.04674 c 0.0172,0.0172 0.04542,0.0172 0.06218,0 0.0172,-0.0172 0.0172,-0.04542 0,-0.06218 z m 0.04674,-0.483306 c 0.0172,-0.0172 0.0172,-0.04542 0,-0.06218 -0.0172,-0.0172 -0.04542,-0.0172 -0.06218,0 l -0.04674,0.04674 c -0.0172,0.0172 -0.0172,0.04542 0,0.06218 0.0172,0.01676 0.04542,0.0172 0.06218,0 z m -0.545483,0.545483 c 0.0172,-0.0172 0.0172,-0.04542 0,-0.06218 -0.0172,-0.0172 -0.04542,-0.0172 -0.06218,0 l -0.04674,0.04674 c -0.0172,0.0172 -0.0172,0.04542 0,0.06218 0.0172,0.01676 0.04542,0.0172 0.06218,0 z" />
        </g>
      </g>
    </g>
    <g
       id="mirror-path-effect1076"
       transform="matrix(-1,0,0,1,103.80032,0)">
      <path
         id="path1576"
         d="m 30.931932,41.674552 v 17.859375 h 17.197916 l 2.38125,-1.852083 V 47.627677 l -6.482291,-5.953125 z"
         style="fill:#ffffff;fill-opacity:0.181818;stroke:none;stroke-width:0.264583px;stroke-linecap:butt;stroke-linejoin:miter;stroke-opacity:1" />
      <g
         transform="matrix(1.1812856,0,0,1.1812856,-6.6884683,-9.1738256)"
         id="g1650"
         style="stroke-width:0.846535">
        <g
           transform="matrix(0.97838827,0,0,0.97838827,0.84861295,1.0936453)"
           id="g1582"
           style="stroke-width:0.865234">
          <path
             id="path1578"
             d="m 45.673103,50.604244 a 6.4067917,6.4067917 0 0 1 -6.406791,6.406792 6.4067917,6.4067917 0 0 1 -6.406792,-6.406792 6.4067917,6.4067917 0 0 1 6.406792,-6.406791 6.4067917,6.4067917 0 0 1 6.406791,6.406791 z"
             style="fill:none;fill-opacity:0.258741;stroke:#353535;stroke-width:0.804051;stroke-linejoin:round;stroke-miterlimit:4;stroke-dasharray:none;stroke-opacity:1" />
          <path
             id="path1580"
             d="m 39.26631,43.9405 v 0.516465"
             style="fill:none;stroke:#242424;stroke-width:0.176504px;stroke-linecap:round;stroke-linejoin:miter;stroke-opacity:1" />
        </g>
        <path
           id="path1584"
           d="m 40.704984,50.604248 a 1.4386719,1.4386719 0 0 1 -1.438672,1.438672 1.4386719,1.4386719 0 0 1 -1.438672,-1.438672 1.4386719,1.4386719 0 0 1 1.438672,-1.438672 1.4386719,1.4386719 0 0 1 1.438672,1.438672 z"
           style="fill:#353535;fill-opacity:1;stroke:none;stroke-width:0;stroke-linejoin:round;stroke-miterlimit:4;stroke-dasharray:none;stroke-opacity:1" />
        <g
           id="g1592"
           style="stroke-width:0.846535">
          <path
             id="path1586"
             d="m 39.266307,44.965307 c -0.612161,0.0041 -1.218977,0.107781 -1.796753,0.306526 -0.138166,0.04753 -0.202526,0.201247 -0.146328,0.336133 l 1.318876,3.165573 c 0.0562,0.134887 0.177107,0.218365 0.272805,0.197725 0.05768,-0.01255 0.115983,-0.02204 0.174666,-0.02842 0.05871,-0.0062 0.117699,-0.0093 0.176734,-0.0093 0.05817,6.7e-5 0.116301,0.0032 0.174149,0.0093 0.05797,0.0061 0.115584,0.01525 0.172599,0.02739 0.09423,0.02022 0.213561,-0.06406 0.269188,-0.199186 l 1.31009,-3.182288 c 0.05563,-0.135122 -0.0096,-0.287976 -0.148233,-0.334174 -0.572726,-0.190876 -1.172954,-0.288727 -1.777793,-0.289276 z"
             style="fill:#353535;fill-opacity:1;stroke:none;stroke-width:0.422839;stroke-linejoin:round;stroke-miterlimit:4;stroke-dasharray:none;stroke-opacity:1" />
          <path
             id="path1588"
             d="m 38.728382,45.674713 h 1.058333 v 1.058333 h -1.058333 z"
             style="stroke-width:30.4753"
             fill="none" />
          <path
             id="path1590"
             d="m 39.257549,46.071587 c 0.07276,0 0.132291,0.05953 0.132291,0.132292 0,0.07276 -0.05953,0.132291 -0.132291,0.132291 -0.07276,0 -0.132292,-0.05953 -0.132292,-0.132291 0,-0.07276 0.05953,-0.132292 0.132292,-0.132292 m 0,-0.08819 c -0.121709,0 -0.220486,0.09878 -0.220486,0.220486 0,0.121708 0.09878,0.220486 0.220486,0.220486 0.121708,0 0.220486,-0.09878 0.220486,-0.220486 0,-0.121709 -0.09878,-0.220486 -0.220486,-0.220486 z m -0.440973,0.264583 h 0.08819 c 0.02425,0 0.0441,-0.01984 0.0441,-0.0441 0,-0.02425 -0.01984,-0.0441 -0.0441,-0.0441 h -0.08819 c -0.02425,0 -0.0441,0.01984 -0.0441,0.0441 0,0.02425 0.01984,0.0441 0.0441,0.0441 z m 0.79375,0 h 0.08819 c 0.02425,0 0.0441,-0.01984 0.0441,-0.0441 0,-0.02425 -0.01984,-0.0441 -0.0441,-0.0441 h -0.08819 c -0.02425,0 -0.0441,0.01984 -0.0441,0.0441 0,0.02425 0.01984,0.0441 0.0441,0.0441 z m -0.396875,-0.48507 v 0.08819 c 0,0.02425 0.01984,0.0441 0.0441,0.0441 0.02425,0 0.0441,-0.01984 0.0441,-0.0441 v -0.08819 c 0,-0.02425 -0.01984,-0.0441 -0.0441,-0.0441 -0.02425,0 -0.0441,0.01984 -0.0441,0.0441 z m 0,0.79375 v 0.0882 c 0,0.02425 0.01984,0.0441 0.0441,0.0441 0.02425,0 0.0441,-0.01984 0.0441,-0.0441 v -0.0882 c 0,-0.02425 -0.01984,-0.0441 -0.0441,-0.0441 -0.02425,0 -0.0441,0.01984 -0.0441,0.0441 z m -0.220927,-0.679979 c -0.0172,-0.0172 -0.04542,-0.0172 -0.06218,0 -0.0172,0.0172 -0.0172,0.04542 0,0.06218 l 0.04674,0.04674 c 0.0172,0.0172 0.04542,0.0172 0.06218,0 0.01676,-0.0172 0.0172,-0.04542 0,-0.06218 z m 0.545483,0.545483 c -0.0172,-0.0172 -0.04542,-0.0172 -0.06218,0 -0.0172,0.0172 -0.0172,0.04542 0,0.06218 l 0.04674,0.04674 c 0.0172,0.0172 0.04542,0.0172 0.06218,0 0.0172,-0.0172 0.0172,-0.04542 0,-0.06218 z m 0.04674,-0.483306 c 0.0172,-0.0172 0.0172,-0.04542 0,-0.06218 -0.0172,-0.0172 -0.04542,-0.0172 -0.06218,0 l -0.04674,0.04674 c -0.0172,0.0172 -0.0172,0.04542 0,0.06218 0.0172,0.01676 0.04542,0.0172 0.06218,0 z m -0.545483,0.545483 c 0.0172,-0.0172 0.0172,-0.04542 0,-0.06218 -0.0172,-0.0172 -0.04542,-0.0172 -0.06218,0 l -0.04674,0.04674 c -0.0172,0.0172 -0.0172,0.04542 0,0.06218 0.0172,0.01676 0.04542,0.0172 0.06218,0 z"
             style="fill:#ffffff;fill-opacity:0.201299;stroke-width:0.223978;stroke-miterlimit:4;stroke-dasharray:none" />
        </g>
        <g
           transform="rotate(45,39.27,50.6)"
           id="g1600"
           style="display:inline;stroke-width:0.846535">
          <path
             id="path1594"
             d="m 39.266307,44.965307 c -0.612161,0.0041 -1.218977,0.107781 -1.796753,0.306526 -0.138166,0.04753 -0.202526,0.201247 -0.146328,0.336133 l 1.318876,3.165573 c 0.0562,0.134887 0.177107,0.218365 0.272805,0.197725 0.05768,-0.01255 0.115983,-0.02204 0.174666,-0.02842 0.05871,-0.0062 0.117699,-0.0093 0.176734,-0.0093 0.05817,6.7e-5 0.116301,0.0032 0.174149,0.0093 0.05797,0.0061 0.115584,0.01525 0.172599,0.02739 0.09423,0.02022 0.213561,-0.06406 0.269188,-0.199186 l 1.31009,-3.182288 c 0.05563,-0.135122 -0.0096,-0.287976 -0.148233,-0.334174 -0.572726,-0.190876 -1.172954,-0.288727 -1.777793,-0.289276 z"
             style="fill:#353535;fill-opacity:1;stroke:none;stroke-width:0.422839;stroke-linejoin:round;stroke-miterlimit:4;stroke-dasharray:none;stroke-opacity:1" />
          <path
             id="path1596"
             d="m 38.728382,45.674713 h 1.058333 v 1.058333 h -1.058333 z"
             style="stroke-width:30.4753"
             fill="none" />
          <path
             id="path1598"
             d="m 39.257549,46.071587 c 0.07276,0 0.132291,0.05953 0.132291,0.132292 0,0.07276 -0.05953,0.132291 -0.132291,0.132291 -0.07276,0 -0.132292,-0.05953 -0.132292,-0.132291 0,-0.07276 0.05953,-0.132292 0.132292,-0.132292 m 0,-0.08819 c -0.121709,0 -0.220486,0.09878 -0.220486,0.220486 0,0.121708 0.09878,0.220486 0.220486,0.220486 0.121708,0 0.220486,-0.09878 0.220486,-0.220486 0,-0.121709 -0.09878,-0.220486 -0.220486,-0.220486 z m -0.440973,0.264583 h 0.08819 c 0.02425,0 0.0441,-0.01984 0.0441,-0.0441 0,-0.02425 -0.01984,-0.0441 -0.0441,-0.0441 h -0.08819 c -0.02425,0 -0.0441,0.01984 -0.0441,0.0441 0,0.02425 0.01984,0.0441 0.0441,0.0441 z m 0.79375,0 h 0.08819 c 0.02425,0 0.0441,-0.01984 0.0441,-0.0441 0,-0.02425 -0.01984,-0.0441 -0.0441,-0.0441 h -0.08819 c -0.02425,0 -0.0441,0.01984 -0.0441,0.0441 0,0.02425 0.01984,0.0441 0.0441,0.0441 z m -0.396875,-0.48507 v 0.08819 c 0,0.02425 0.01984,0.0441 0.0441,0.0441 0.02425,0 0.0441,-0.01984 0.0441,-0.0441 v -0.08819 c 0,-0.02425 -0.01984,-0.0441 -0.0441,-0.0441 -0.02425,0 -0.0441,0.01984 -0.0441,0.0441 z m 0,0.79375 v 0.0882 c 0,0.02425 0.01984,0.0441 0.0441,0.0441 0.02425,0 0.0441,-0.01984 0.0441,-0.0441 v -0.0882 c 0,-0.02425 -0.01984,-0.0441 -0.0441,-0.0441 -0.02425,0 -0.0441,0.01984 -0.0441,0.0441 z m -0.220927,-0.679979 c -0.0172,-0.0172 -0.04542,-0.0172 -0.06218,0 -0.0172,0.0172 -0.0172,0.04542 0,0.06218 l 0.04674,0.04674 c 0.0172,0.0172 0.04542,0.0172 0.06218,0 0.01676,-0.0172 0.0172,-0.04542 0,-0.06218 z m 0.545483,0.545483 c -0.0172,-0.0172 -0.04542,-0.0172 -0.06218,0 -0.0172,0.0172 -0.0172,0.04542 0,0.06218 l 0.04674,0.04674 c 0.0172,0.0172 0.04542,0.0172 0.06218,0 0.0172,-0.0172 0.0172,-0.04542 0,-0.06218 z m 0.04674,-0.483306 c 0.0172,-0.0172 0.0172,-0.04542 0,-0.06218 -0.0172,-0.0172 -0.04542,-0.0172 -0.06218,0 l -0.04674,0.04674 c -0.0172,0.0172 -0.0172,0.04542 0,0.06218 0.0172,0.01676 0.04542,0.0172 0.06218,0 z m -0.545483,0.545483 c 0.0172,-0.0172 0.0172,-0.04542 0,-0.06218 -0.0172,-0.0172 -0.04542,-0.0172 -0.06218,0 l -0.04674,0.04674 c -0.0172,0.0172 -0.0172,0.04542 0,0.06218 0.0172,0.01676 0.04542,0.0172 0.06218,0 z"
             style="fill:#ffffff;fill-opacity:0.201299;stroke-width:0.223978;stroke-miterlimit:4;stroke-dasharray:none" />
        </g>
        <g
           transform="rotate(90,39.27,50.6)"
           id="g1608"
           style="display:inline;stroke-width:0.846535">
          <path
             id="path1602"
             d="m 39.266307,44.965307 c -0.612161,0.0041 -1.218977,0.107781 -1.796753,0.306526 -0.138166,0.04753 -0.202526,0.201247 -0.146328,0.336133 l 1.318876,3.165573 c 0.0562,0.134887 0.177107,0.218365 0.272805,0.197725 0.05768,-0.01255 0.115983,-0.02204 0.174666,-0.02842 0.05871,-0.0062 0.117699,-0.0093 0.176734,-0.0093 0.05817,6.7e-5 0.116301,0.0032 0.174149,0.0093 0.05797,0.0061 0.115584,0.01525 0.172599,0.02739 0.09423,0.02022 0.213561,-0.06406 0.269188,-0.199186 l 1.31009,-3.182288 c 0.05563,-0.135122 -0.0096,-0.287976 -0.148233,-0.334174 -0.572726,-0.190876 -1.172954,-0.288727 -1.777793,-0.289276 z"
             style="fill:#353535;fill-opacity:1;stroke:none;stroke-width:0.422839;stroke-linejoin:round;stroke-miterlimit:4;stroke-dasharray:none;stroke-opacity:1" />
          <path
             id="path1604"
             d="m 38.728382,45.674713 h 1.058333 v 1.058333 h -1.058333 z"
             style="stroke-width:30.4753"
             fill="none" />
          <path
             id="path1606"
             d="m 39.257549,46.071587 c 0.07276,0 0.132291,0.05953 0.132291,0.132292 0,0.07276 -0.05953,0.132291 -0.132291,0.132291 -0.07276,0 -0.132292,-0.05953 -0.132292,-0.132291 0,-0.07276 0.05953,-0.132292 0.132292,-0.132292 m 0,-0.08819 c -0.121709,0 -0.220486,0.09878 -0.220486,0.220486 0,0.121708 0.09878,0.220486 0.220486,0.220486 0.121708,0 0.220486,-0.09878 0.220486,-0.220486 0,-0.121709 -0.09878,-0.220486 -0.220486,-0.220486 z m -0.440973,0.264583 h 0.08819 c 0.02425,0 0.0441,-0.01984 0.0441,-0.0441 0,-0.02425 -0.01984,-0.0441 -0.0441,-0.0441 h -0.08819 c -0.02425,0 -0.0441,0.01984 -0.0441,0.0441 0,0.02425 0.01984,0.0441 0.0441,0.0441 z m 0.79375,0 h 0.08819 c 0.02425,0 0.0441,-0.01984 0.0441,-0.0441 0,-0.02425 -0.01984,-0.0441 -0.0441,-0.0441 h -0.08819 c -0.02425,0 -0.0441,0.01984 -0.0441,0.0441 0,0.02425 0.01984,0.0441 0.0441,0.0441 z m -0.396875,-0.48507 v 0.08819 c 0,0.02425 0.01984,0.0441 0.0441,0.0441 0.02425,0 0.0441,-0.01984 0.0441,-0.0441 v -0.08819 c 0,-0.02425 -0.01984,-0.0441 -0.0441,-0.0441 -0.02425,0 -0.0441,0.01984 -0.0441,0.0441 z m 0,0.79375 v 0.0882 c 0,0.02425 0.01984,0.0441 0.0441,0.0441 0.02425,0 0.0441,-0.01984 0.0441,-0.0441 v -0.0882 c 0,-0.02425 -0.01984,-0.0441 -0.0441,-0.0441 -0.02425,0 -0.0441,0.01984 -0.0441,0.0441 z m -0.220927,-0.679979 c -0.0172,-0.0172 -0.04542,-0.0172 -0.06218,0 -0.0172,0.0172 -0.0172,0.04542 0,0.06218 l 0.04674,0.04674 c 0.0172,0.0172 0.04542,0.0172 0.06218,0 0.01676,-0.0172 0.0172,-0.04542 0,-0.06218 z m 0.545483,0.545483 c -0.0172,-0.0172 -0.04542,-0.0172 -0.06218,0 -0.0172,0.0172 -0.0172,0.04542 0,0.06218 l 0.04674,0.04674 c 0.0172,0.0172 0.04542,0.0172 0.06218,0 0.0172,-0.0172 0.0172,-0.04542 0,-0.06218 z m 0.04674,-0.483306 c 0.0172,-0.0172 0.0172,-0.04542 0,-0.06218 -0.0172,-0.0172 -0.04542,-0.0172 -0.06218,0 l -0.04674,0.04674 c -0.0172,0.0172 -0.0172,0.04542 0,0.06218 0.0172,0.01676 0.04542,0.0172 0.06218,0 z m -0.545483,0.545483 c 0.0172,-0.0172 0.0172,-0.04542 0,-0.06218 -0.0172,-0.0172 -0.04542,-0.0172 -0.06218,0 l -0.04674,0.04674 c -0.0172,0.0172 -0.0172,0.04542 0,0.06218 0.0172,0.01676 0.04542,0.0172 0.06218,0 z"
             style="fill:#ffffff;fill-opacity:0.201299;stroke-width:0.223978;stroke-miterlimit:4;stroke-dasharray:none" />
        </g>
        <g
           transform="rotate(135,39.27,50.6)"
           id="g1616"
           style="display:inline;stroke-width:0.846535">
          <path
             id="path1610"
             d="m 39.266307,44.965307 c -0.612161,0.0041 -1.218977,0.107781 -1.796753,0.306526 -0.138166,0.04753 -0.202526,0.201247 -0.146328,0.336133 l 1.318876,3.165573 c 0.0562,0.134887 0.177107,0.218365 0.272805,0.197725 0.05768,-0.01255 0.115983,-0.02204 0.174666,-0.02842 0.05871,-0.0062 0.117699,-0.0093 0.176734,-0.0093 0.05817,6.7e-5 0.116301,0.0032 0.174149,0.0093 0.05797,0.0061 0.115584,0.01525 0.172599,0.02739 0.09423,0.02022 0.213561,-0.06406 0.269188,-0.199186 l 1.31009,-3.182288 c 0.05563,-0.135122 -0.0096,-0.287976 -0.148233,-0.334174 -0.572726,-0.190876 -1.172954,-0.288727 -1.777793,-0.289276 z"
             style="fill:#353535;fill-opacity:1;stroke:none;stroke-width:0.422839;stroke-linejoin:round;stroke-miterlimit:4;stroke-dasharray:none;stroke-opacity:1" />
          <path
             id="path1612"
             d="m 38.728382,45.674713 h 1.058333 v 1.058333 h -1.058333 z"
             style="stroke-width:30.4753"
             fill="none" />
          <path
             id="path1614"
             d="m 39.257549,46.071587 c 0.07276,0 0.132291,0.05953 0.132291,0.132292 0,0.07276 -0.05953,0.132291 -0.132291,0.132291 -0.07276,0 -0.132292,-0.05953 -0.132292,-0.132291 0,-0.07276 0.05953,-0.132292 0.132292,-0.132292 m 0,-0.08819 c -0.121709,0 -0.220486,0.09878 -0.220486,0.220486 0,0.121708 0.09878,0.220486 0.220486,0.220486 0.121708,0 0.220486,-0.09878 0.220486,-0.220486 0,-0.121709 -0.09878,-0.220486 -0.220486,-0.220486 z m -0.440973,0.264583 h 0.08819 c 0.02425,0 0.0441,-0.01984 0.0441,-0.0441 0,-0.02425 -0.01984,-0.0441 -0.0441,-0.0441 h -0.08819 c -0.02425,0 -0.0441,0.01984 -0.0441,0.0441 0,0.02425 0.01984,0.0441 0.0441,0.0441 z m 0.79375,0 h 0.08819 c 0.02425,0 0.0441,-0.01984 0.0441,-0.0441 0,-0.02425 -0.01984,-0.0441 -0.0441,-0.0441 h -0.08819 c -0.02425,0 -0.0441,0.01984 -0.0441,0.0441 0,0.02425 0.01984,0.0441 0.0441,0.0441 z m -0.396875,-0.48507 v 0.08819 c 0,0.02425 0.01984,0.0441 0.0441,0.0441 0.02425,0 0.0441,-0.01984 0.0441,-0.0441 v -0.08819 c 0,-0.02425 -0.01984,-0.0441 -0.0441,-0.0441 -0.02425,0 -0.0441,0.01984 -0.0441,0.0441 z m 0,0.79375 v 0.0882 c 0,0.02425 0.01984,0.0441 0.0441,0.0441 0.02425,0 0.0441,-0.01984 0.0441,-0.0441 v -0.0882 c 0,-0.02425 -0.01984,-0.0441 -0.0441,-0.0441 -0.02425,0 -0.0441,0.01984 -0.0441,0.0441 z m -0.220927,-0.679979 c -0.0172,-0.0172 -0.04542,-0.0172 -0.06218,0 -0.0172,0.0172 -0.0172,0.04542 0,0.06218 l 0.04674,0.04674 c 0.0172,0.0172 0.04542,0.0172 0.06218,0 0.01676,-0.0172 0.0172,-0.04542 0,-0.06218 z m 0.545483,0.545483 c -0.0172,-0.0172 -0.04542,-0.0172 -0.06218,0 -0.0172,0.0172 -0.0172,0.04542 0,0.06218 l 0.04674,0.04674 c 0.0172,0.0172 0.04542,0.0172 0.06218,0 0.0172,-0.0172 0.0172,-0.04542 0,-0.06218 z m 0.04674,-0.483306 c 0.0172,-0.0172 0.0172,-0.04542 0,-0.06218 -0.0172,-0.0172 -0.04542,-0.0172 -0.06218,0 l -0.04674,0.04674 c -0.0172,0.0172 -0.0172,0.04542 0,0.06218 0.0172,0.01676 0.04542,0.0172 0.06218,0 z m -0.545483,0.545483 c 0.0172,-0.0172 0.0172,-0.04542 0,-0.06218 -0.0172,-0.0172 -0.04542,-0.0172 -0.06218,0 l -0.04674,0.04674 c -0.0172,0.0172 -0.0172,0.04542 0,0.06218 0.0172,0.01676 0.04542,0.0172 0.06218,0 z"
             style="fill:#ffffff;fill-opacity:0.201299;stroke-width:0.223978;stroke-miterlimit:4;stroke-dasharray:none" />
        </g>
        <g
           transform="rotate(180,39.27,50.6)"
           id="g1624"
           style="display:inline;stroke-width:0.846535">
          <path
             id="path1618"
             d="m 39.266307,44.965307 c -0.612161,0.0041 -1.218977,0.107781 -1.796753,0.306526 -0.138166,0.04753 -0.202526,0.201247 -0.146328,0.336133 l 1.318876,3.165573 c 0.0562,0.134887 0.177107,0.218365 0.272805,0.197725 0.05768,-0.01255 0.115983,-0.02204 0.174666,-0.02842 0.05871,-0.0062 0.117699,-0.0093 0.176734,-0.0093 0.05817,6.7e-5 0.116301,0.0032 0.174149,0.0093 0.05797,0.0061 0.115584,0.01525 0.172599,0.02739 0.09423,0.02022 0.213561,-0.06406 0.269188,-0.199186 l 1.31009,-3.182288 c 0.05563,-0.135122 -0.0096,-0.287976 -0.148233,-0.334174 -0.572726,-0.190876 -1.172954,-0.288727 -1.777793,-0.289276 z"
             style="fill:#353535;fill-opacity:1;stroke:none;stroke-width:0.422839;stroke-linejoin:round;stroke-miterlimit:4;stroke-dasharray:none;stroke-opacity:1" />
          <path
             id="path1620"
             d="m 38.728382,45.674713 h 1.058333 v 1.058333 h -1.058333 z"
             style="stroke-width:30.4753"
             fill="none" />
          <path
             id="path1622"
             d="m 39.257549,46.071587 c 0.07276,0 0.132291,0.05953 0.132291,0.132292 0,0.07276 -0.05953,0.132291 -0.132291,0.132291 -0.07276,0 -0.132292,-0.05953 -0.132292,-0.132291 0,-0.07276 0.05953,-0.132292 0.132292,-0.132292 m 0,-0.08819 c -0.121709,0 -0.220486,0.09878 -0.220486,0.220486 0,0.121708 0.09878,0.220486 0.220486,0.220486 0.121708,0 0.220486,-0.09878 0.220486,-0.220486 0,-0.121709 -0.09878,-0.220486 -0.220486,-0.220486 z m -0.440973,0.264583 h 0.08819 c 0.02425,0 0.0441,-0.01984 0.0441,-0.0441 0,-0.02425 -0.01984,-0.0441 -0.0441,-0.0441 h -0.08819 c -0.02425,0 -0.0441,0.01984 -0.0441,0.0441 0,0.02425 0.01984,0.0441 0.0441,0.0441 z m 0.79375,0 h 0.08819 c 0.02425,0 0.0441,-0.01984 0.0441,-0.0441 0,-0.02425 -0.01984,-0.0441 -0.0441,-0.0441 h -0.08819 c -0.02425,0 -0.0441,0.01984 -0.0441,0.0441 0,0.02425 0.01984,0.0441 0.0441,0.0441 z m -0.396875,-0.48507 v 0.08819 c 0,0.02425 0.01984,0.0441 0.0441,0.0441 0.02425,0 0.0441,-0.01984 0.0441,-0.0441 v -0.08819 c 0,-0.02425 -0.01984,-0.0441 -0.0441,-0.0441 -0.02425,0 -0.0441,0.01984 -0.0441,0.0441 z m 0,0.79375 v 0.0882 c 0,0.02425 0.01984,0.0441 0.0441,0.0441 0.02425,0 0.0441,-0.01984 0.0441,-0.0441 v -0.0882 c 0,-0.02425 -0.01984,-0.0441 -0.0441,-0.0441 -0.02425,0 -0.0441,0.01984 -0.0441,0.0441 z m -0.220927,-0.679979 c -0.0172,-0.0172 -0.04542,-0.0172 -0.06218,0 -0.0172,0.0172 -0.0172,0.04542 0,0.06218 l 0.04674,0.04674 c 0.0172,0.0172 0.04542,0.0172 0.06218,0 0.01676,-0.0172 0.0172,-0.04542 0,-0.06218 z m 0.545483,0.545483 c -0.0172,-0.0172 -0.04542,-0.0172 -0.06218,0 -0.0172,0.0172 -0.0172,0.04542 0,0.06218 l 0.04674,0.04674 c 0.0172,0.0172 0.04542,0.0172 0.06218,0 0.0172,-0.0172 0.0172,-0.04542 0,-0.06218 z m 0.04674,-0.483306 c 0.0172,-0.0172 0.0172,-0.04542 0,-0.06218 -0.0172,-0.0172 -0.04542,-0.0172 -0.06218,0 l -0.04674,0.04674 c -0.0172,0.0172 -0.0172,0.04542 0,0.06218 0.0172,0.01676 0.04542,0.0172 0.06218,0 z m -0.545483,0.545483 c 0.0172,-0.0172 0.0172,-0.04542 0,-0.06218 -0.0172,-0.0172 -0.04542,-0.0172 -0.06218,0 l -0.04674,0.04674 c -0.0172,0.0172 -0.0172,0.04542 0,0.06218 0.0172,0.01676 0.04542,0.0172 0.06218,0 z"
             style="fill:#ffffff;fill-opacity:0.201299;stroke-width:0.223978;stroke-miterlimit:4;stroke-dasharray:none" />
        </g>
        <g
           transform="rotate(-135,39.27,50.6)"
           id="g1632"
           style="display:inline;stroke-width:0.846535">
          <path
             id="path1626"
             d="m 39.266307,44.965307 c -0.612161,0.0041 -1.218977,0.107781 -1.796753,0.306526 -0.138166,0.04753 -0.202526,0.201247 -0.146328,0.336133 l 1.318876,3.165573 c 0.0562,0.134887 0.177107,0.218365 0.272805,0.197725 0.05768,-0.01255 0.115983,-0.02204 0.174666,-0.02842 0.05871,-0.0062 0.117699,-0.0093 0.176734,-0.0093 0.05817,6.7e-5 0.116301,0.0032 0.174149,0.0093 0.05797,0.0061 0.115584,0.01525 0.172599,0.02739 0.09423,0.02022 0.213561,-0.06406 0.269188,-0.199186 l 1.31009,-3.182288 c 0.05563,-0.135122 -0.0096,-0.287976 -0.148233,-0.334174 -0.572726,-0.190876 -1.172954,-0.288727 -1.777793,-0.289276 z"
             style="fill:#353535;fill-opacity:1;stroke:none;stroke-width:0.422839;stroke-linejoin:round;stroke-miterlimit:4;stroke-dasharray:none;stroke-opacity:1" />
          <path
             id="path1628"
             d="m 38.728382,45.674713 h 1.058333 v 1.058333 h -1.058333 z"
             style="stroke-width:30.4753"
             fill="none" />
          <path
             id="path1630"
             d="m 39.257549,46.071587 c 0.07276,0 0.132291,0.05953 0.132291,0.132292 0,0.07276 -0.05953,0.132291 -0.132291,0.132291 -0.07276,0 -0.132292,-0.05953 -0.132292,-0.132291 0,-0.07276 0.05953,-0.132292 0.132292,-0.132292 m 0,-0.08819 c -0.121709,0 -0.220486,0.09878 -0.220486,0.220486 0,0.121708 0.09878,0.220486 0.220486,0.220486 0.121708,0 0.220486,-0.09878 0.220486,-0.220486 0,-0.121709 -0.09878,-0.220486 -0.220486,-0.220486 z m -0.440973,0.264583 h 0.08819 c 0.02425,0 0.0441,-0.01984 0.0441,-0.0441 0,-0.02425 -0.01984,-0.0441 -0.0441,-0.0441 h -0.08819 c -0.02425,0 -0.0441,0.01984 -0.0441,0.0441 0,0.02425 0.01984,0.0441 0.0441,0.0441 z m 0.79375,0 h 0.08819 c 0.02425,0 0.0441,-0.01984 0.0441,-0.0441 0,-0.02425 -0.01984,-0.0441 -0.0441,-0.0441 h -0.08819 c -0.02425,0 -0.0441,0.01984 -0.0441,0.0441 0,0.02425 0.01984,0.0441 0.0441,0.0441 z m -0.396875,-0.48507 v 0.08819 c 0,0.02425 0.01984,0.0441 0.0441,0.0441 0.02425,0 0.0441,-0.01984 0.0441,-0.0441 v -0.08819 c 0,-0.02425 -0.01984,-0.0441 -0.0441,-0.0441 -0.02425,0 -0.0441,0.01984 -0.0441,0.0441 z m 0,0.79375 v 0.0882 c 0,0.02425 0.01984,0.0441 0.0441,0.0441 0.02425,0 0.0441,-0.01984 0.0441,-0.0441 v -0.0882 c 0,-0.02425 -0.01984,-0.0441 -0.0441,-0.0441 -0.02425,0 -0.0441,0.01984 -0.0441,0.0441 z m -0.220927,-0.679979 c -0.0172,-0.0172 -0.04542,-0.0172 -0.06218,0 -0.0172,0.0172 -0.0172,0.04542 0,0.06218 l 0.04674,0.04674 c 0.0172,0.0172 0.04542,0.0172 0.06218,0 0.01676,-0.0172 0.0172,-0.04542 0,-0.06218 z m 0.545483,0.545483 c -0.0172,-0.0172 -0.04542,-0.0172 -0.06218,0 -0.0172,0.0172 -0.0172,0.04542 0,0.06218 l 0.04674,0.04674 c 0.0172,0.0172 0.04542,0.0172 0.06218,0 0.0172,-0.0172 0.0172,-0.04542 0,-0.06218 z m 0.04674,-0.483306 c 0.0172,-0.0172 0.0172,-0.04542 0,-0.06218 -0.0172,-0.0172 -0.04542,-0.0172 -0.06218,0 l -0.04674,0.04674 c -0.0172,0.0172 -0.0172,0.04542 0,0.06218 0.0172,0.01676 0.04542,0.0172 0.06218,0 z m -0.545483,0.545483 c 0.0172,-0.0172 0.0172,-0.04542 0,-0.06218 -0.0172,-0.0172 -0.04542,-0.0172 -0.06218,0 l -0.04674,0.04674 c -0.0172,0.0172 -0.0172,0.04542 0,0.06218 0.0172,0.01676 0.04542,0.0172 0.06218,0 z"
             style="fill:#ffffff;fill-opacity:0.201299;stroke-width:0.223978;stroke-miterlimit:4;stroke-dasharray:none" />
        </g>
        <g
           transform="rotate(-90,39.27,50.6)"
           id="g1640"
           style="display:inline;stroke-width:0.846535">
          <path
             id="path1634"
             d="m 39.266307,44.965307 c -0.612161,0.0041 -1.218977,0.107781 -1.796753,0.306526 -0.138166,0.04753 -0.202526,0.201247 -0.146328,0.336133 l 1.318876,3.165573 c 0.0562,0.134887 0.177107,0.218365 0.272805,0.197725 0.05768,-0.01255 0.115983,-0.02204 0.174666,-0.02842 0.05871,-0.0062 0.117699,-0.0093 0.176734,-0.0093 0.05817,6.7e-5 0.116301,0.0032 0.174149,0.0093 0.05797,0.0061 0.115584,0.01525 0.172599,0.02739 0.09423,0.02022 0.213561,-0.06406 0.269188,-0.199186 l 1.31009,-3.182288 c 0.05563,-0.135122 -0.0096,-0.287976 -0.148233,-0.334174 -0.572726,-0.190876 -1.172954,-0.288727 -1.777793,-0.289276 z"
             style="fill:#353535;fill-opacity:1;stroke:none;stroke-width:0.422839;stroke-linejoin:round;stroke-miterlimit:4;stroke-dasharray:none;stroke-opacity:1" />
          <path
             id="path1636"
             d="m 38.728382,45.674713 h 1.058333 v 1.058333 h -1.058333 z"
             style="stroke-width:30.4753"
             fill="none" />
          <path
             id="path1638"
             d="m 39.257549,46.071587 c 0.07276,0 0.132291,0.05953 0.132291,0.132292 0,0.07276 -0.05953,0.132291 -0.132291,0.132291 -0.07276,0 -0.132292,-0.05953 -0.132292,-0.132291 0,-0.07276 0.05953,-0.132292 0.132292,-0.132292 m 0,-0.08819 c -0.121709,0 -0.220486,0.09878 -0.220486,0.220486 0,0.121708 0.09878,0.220486 0.220486,0.220486 0.121708,0 0.220486,-0.09878 0.220486,-0.220486 0,-0.121709 -0.09878,-0.220486 -0.220486,-0.220486 z m -0.440973,0.264583 h 0.08819 c 0.02425,0 0.0441,-0.01984 0.0441,-0.0441 0,-0.02425 -0.01984,-0.0441 -0.0441,-0.0441 h -0.08819 c -0.02425,0 -0.0441,0.01984 -0.0441,0.0441 0,0.02425 0.01984,0.0441 0.0441,0.0441 z m 0.79375,0 h 0.08819 c 0.02425,0 0.0441,-0.01984 0.0441,-0.0441 0,-0.02425 -0.01984,-0.0441 -0.0441,-0.0441 h -0.08819 c -0.02425,0 -0.0441,0.01984 -0.0441,0.0441 0,0.02425 0.01984,0.0441 0.0441,0.0441 z m -0.396875,-0.48507 v 0.08819 c 0,0.02425 0.01984,0.0441 0.0441,0.0441 0.02425,0 0.0441,-0.01984 0.0441,-0.0441 v -0.08819 c 0,-0.02425 -0.01984,-0.0441 -0.0441,-0.0441 -0.02425,0 -0.0441,0.01984 -0.0441,0.0441 z m 0,0.79375 v 0.0882 c 0,0.02425 0.01984,0.0441 0.0441,0.0441 0.02425,0 0.0441,-0.01984 0.0441,-0.0441 v -0.0882 c 0,-0.02425 -0.01984,-0.0441 -0.0441,-0.0441 -0.02425,0 -0.0441,0.01984 -0.0441,0.0441 z m -0.220927,-0.679979 c -0.0172,-0.0172 -0.04542,-0.0172 -0.06218,0 -0.0172,0.0172 -0.0172,0.04542 0,0.06218 l 0.04674,0.04674 c 0.0172,0.0172 0.04542,0.0172 0.06218,0 0.01676,-0.0172 0.0172,-0.04542 0,-0.06218 z m 0.545483,0.545483 c -0.0172,-0.0172 -0.04542,-0.0172 -0.06218,0 -0.0172,0.0172 -0.0172,0.04542 0,0.06218 l 0.04674,0.04674 c 0.0172,0.0172 0.04542,0.0172 0.06218,0 0.0172,-0.0172 0.0172,-0.04542 0,-0.06218 z m 0.04674,-0.483306 c 0.0172,-0.0172 0.0172,-0.04542 0,-0.06218 -0.0172,-0.0172 -0.04542,-0.0172 -0.06218,0 l -0.04674,0.04674 c -0.0172,0.0172 -0.0172,0.04542 0,0.06218 0.0172,0.01676 0.04542,0.0172 0.06218,0 z m -0.545483,0.545483 c 0.0172,-0.0172 0.0172,-0.04542 0,-0.06218 -0.0172,-0.0172 -0.04542,-0.0172 -0.06218,0 l -0.04674,0.04674 c -0.0172,0.0172 -0.0172,0.04542 0,0.06218 0.0172,0.01676 0.04542,0.0172 0.06218,0 z"
             style="fill:#ffffff;fill-opacity:0.201299;stroke-width:0.223978;stroke-miterlimit:4;stroke-dasharray:none" />
        </g>
        <g
           transform="rotate(-45,39.27,50.6)"
           id="g1648"
           style="display:inline;stroke-width:0.846535">
          <path
             id="path1642"
             d="m 39.266307,44.965307 c -0.612161,0.0041 -1.218977,0.107781 -1.796753,0.306526 -0.138166,0.04753 -0.202526,0.201247 -0.146328,0.336133 l 1.318876,3.165573 c 0.0562,0.134887 0.177107,0.218365 0.272805,0.197725 0.05768,-0.01255 0.115983,-0.02204 0.174666,-0.02842 0.05871,-0.0062 0.117699,-0.0093 0.176734,-0.0093 0.05817,6.7e-5 0.116301,0.0032 0.174149,0.0093 0.05797,0.0061 0.115584,0.01525 0.172599,0.02739 0.09423,0.02022 0.213561,-0.06406 0.269188,-0.199186 l 1.31009,-3.182288 c 0.05563,-0.135122 -0.0096,-0.287976 -0.148233,-0.334174 -0.572726,-0.190876 -1.172954,-0.288727 -1.777793,-0.289276 z"
             style="fill:#353535;fill-opacity:1;stroke:none;stroke-width:0.422839;stroke-linejoin:round;stroke-miterlimit:4;stroke-dasharray:none;stroke-opacity:1" />
          <path
             id="path1644"
             d="m 38.728382,45.674713 h 1.058333 v 1.058333 h -1.058333 z"
             style="stroke-width:30.4753"
             fill="none" />
          <path
             id="path1646"
             d="m 39.257549,46.071587 c 0.07276,0 0.132291,0.05953 0.132291,0.132292 0,0.07276 -0.05953,0.132291 -0.132291,0.132291 -0.07276,0 -0.132292,-0.05953 -0.132292,-0.132291 0,-0.07276 0.05953,-0.132292 0.132292,-0.132292 m 0,-0.08819 c -0.121709,0 -0.220486,0.09878 -0.220486,0.220486 0,0.121708 0.09878,0.220486 0.220486,0.220486 0.121708,0 0.220486,-0.09878 0.220486,-0.220486 0,-0.121709 -0.09878,-0.220486 -0.220486,-0.220486 z m -0.440973,0.264583 h 0.08819 c 0.02425,0 0.0441,-0.01984 0.0441,-0.0441 0,-0.02425 -0.01984,-0.0441 -0.0441,-0.0441 h -0.08819 c -0.02425,0 -0.0441,0.01984 -0.0441,0.0441 0,0.02425 0.01984,0.0441 0.0441,0.0441 z m 0.79375,0 h 0.08819 c 0.02425,0 0.0441,-0.01984 0.0441,-0.0441 0,-0.02425 -0.01984,-0.0441 -0.0441,-0.0441 h -0.08819 c -0.02425,0 -0.0441,0.01984 -0.0441,0.0441 0,0.02425 0.01984,0.0441 0.0441,0.0441 z m -0.396875,-0.48507 v 0.08819 c 0,0.02425 0.01984,0.0441 0.0441,0.0441 0.02425,0 0.0441,-0.01984 0.0441,-0.0441 v -0.08819 c 0,-0.02425 -0.01984,-0.0441 -0.0441,-0.0441 -0.02425,0 -0.0441,0.01984 -0.0441,0.0441 z m 0,0.79375 v 0.0882 c 0,0.02425 0.01984,0.0441 0.0441,0.0441 0.02425,0 0.0441,-0.01984 0.0441,-0.0441 v -0.0882 c 0,-0.02425 -0.01984,-0.0441 -0.0441,-0.0441 -0.02425,0 -0.0441,0.01984 -0.0441,0.0441 z m -0.220927,-0.679979 c -0.0172,-0.0172 -0.04542,-0.0172 -0.06218,0 -0.0172,0.0172 -0.0172,0.04542 0,0.06218 l 0.04674,0.04674 c 0.0172,0.0172 0.04542,0.0172 0.06218,0 0.01676,-0.0172 0.0172,-0.04542 0,-0.06218 z m 0.545483,0.545483 c -0.0172,-0.0172 -0.04542,-0.0172 -0.06218,0 -0.0172,0.0172 -0.0172,0.04542 0,0.06218 l 0.04674,0.04674 c 0.0172,0.0172 0.04542,0.0172 0.06218,0 0.0172,-0.0172 0.0172,-0.04542 0,-0.06218 z m 0.04674,-0.483306 c 0.0172,-0.0172 0.0172,-0.04542 0,-0.06218 -0.0172,-0.0172 -0.04542,-0.0172 -0.06218,0 l -0.04674,0.04674 c -0.0172,0.0172 -0.0172,0.04542 0,0.06218 0.0172,0.01676 0.04542,0.0172 0.06218,0 z m -0.545483,0.545483 c 0.0172,-0.0172 0.0172,-0.04542 0,-0.06218 -0.0172,-0.0172 -0.04542,-0.0172 -0.06218,0 l -0.04674,0.04674 c -0.0172,0.0172 -0.0172,0.04542 0,0.06218 0.0172,0.01676 0.04542,0.0172 0.06218,0 z"
             style="fill:#ffffff;fill-opacity:0.201299;stroke-width:0.223978;stroke-miterlimit:4;stroke-dasharray:none" />
        </g>
      </g>
    </g>
  </g>
</svg>
